<?xml version="1.0" standalone="no"?>
<!DOCTYPE svg PUBLIC "-//W3C//DTD SVG 20010904//EN"
 "http://www.w3.org/TR/2001/REC-SVG-20010904/DTD/svg10.dtd">
<svg version="1.0" xmlns="http://www.w3.org/2000/svg"
 width="460.000000pt" height="460.000000pt" viewBox="0 0 460.000000 460.000000"
 preserveAspectRatio="xMidYMid meet">
<metadata>
Created by potrace 1.14, written by Peter Selinger 2001-2017
</metadata>
<g transform="translate(0.000000,460.000000) scale(0.100000,-0.100000)"
fill="#000000" stroke="none">
<path d="M2223 4263 c-23 -8 -61 -32 -86 -53 -142 -125 -112 -363 56 -444 194
-95 414 52 394 264 -8 96 -63 177 -151 222 -51 27 -153 32 -213 11z m174 -106
c82 -43 111 -140 68 -230 -57 -120 -237 -117 -301 5 -19 36 -18 112 2 151 21
40 61 76 94 83 14 3 30 7 35 9 19 6 74 -4 102 -18z"/>
<path d="M3385 3920 c-36 -15 -415 -405 -415 -427 0 -11 9 -32 21 -46 23 -30
159 -167 166 -167 2 0 16 6 31 14 51 26 123 0 142 -50 25 -66 17 -82 -99 -194
l-110 -105 66 -132 65 -133 76 73 c41 39 85 81 97 92 12 11 37 35 56 53 l35
32 52 -15 c159 -47 409 -296 718 -714 68 -91 131 -176 139 -188 11 -16 26 -23
47 -23 l31 0 -6 163 c-3 89 -8 173 -11 187 -2 14 -7 47 -11 74 -31 243 -152
578 -292 806 -53 85 -179 255 -232 313 -20 21 -49 53 -66 71 -94 100 -249 217
-380 286 -80 42 -88 44 -120 30z"/>
<path d="M1538 3894 c-4 -3 -37 -14 -75 -24 -37 -10 -162 -46 -278 -80 -115
-34 -219 -64 -230 -67 -11 -3 -79 -23 -152 -44 -72 -22 -139 -39 -147 -39 -9
0 -19 -15 -25 -37 -6 -21 -40 -146 -76 -278 -36 -132 -68 -247 -70 -255 -4
-20 -56 -211 -166 -615 -50 -181 -106 -388 -125 -460 -20 -71 -45 -161 -56
-199 -11 -38 -21 -78 -23 -88 -2 -11 -7 -28 -10 -39 -5 -14 -2 -19 12 -19 13
0 32 28 67 103 27 56 92 190 144 297 52 107 116 240 142 295 337 702 343 714
357 707 6 -4 49 -43 95 -87 91 -87 347 -327 389 -366 15 -13 87 -81 160 -150
74 -70 150 -141 169 -159 57 -53 284 -266 335 -315 25 -25 50 -45 54 -45 10 0
275 266 279 280 2 5 -7 20 -20 33 -22 23 -230 244 -298 317 -39 42 -249 267
-341 364 -37 39 -81 87 -99 106 -18 19 -90 96 -160 170 -70 74 -145 155 -168
180 l-40 44 72 31 c39 17 164 68 277 114 l207 82 -77 125 c-58 94 -81 124 -97
124 -11 0 -23 -3 -26 -6z"/>
<path d="M1991 3825 c-12 -20 -21 -38 -21 -40 0 -3 -79 -163 -175 -356 -97
-194 -175 -357 -173 -364 4 -16 280 -315 292 -315 2 0 20 30 39 68 193 384
427 851 427 854 0 1 -33 3 -73 4 -113 1 -211 53 -267 141 l-28 43 -21 -35z"/>
<path d="M2610 3840 c0 -16 -72 -91 -113 -117 -31 -19 -47 -44 -92 -137 -30
-63 -55 -119 -55 -126 0 -7 52 -119 116 -249 64 -130 166 -337 226 -461 61
-124 122 -240 135 -259 44 -57 135 -85 223 -67 38 7 32 15 140 -169 14 -24
151 -250 305 -504 154 -254 288 -476 298 -494 26 -45 29 -47 69 -50 44 -4 49
-21 -62 208 -96 197 -190 394 -265 550 -118 245 -186 387 -255 530 -98 203
-202 420 -380 790 -263 548 -272 565 -282 565 -4 0 -8 -4 -8 -10z"/>
<path d="M2172 1981 c-304 -307 -555 -561 -559 -564 -3 -4 39 -52 93 -106 l99
-100 188 192 c104 106 360 365 569 576 l379 384 -56 23 c-67 27 -87 43 -129
106 l-32 46 -552 -557z"/>
<path d="M1335 2450 c-4 -12 -70 -151 -147 -308 -76 -158 -178 -368 -226 -466
-48 -99 -118 -243 -157 -322 -64 -130 -68 -143 -50 -146 52 -9 54 -6 399 564
l338 561 -58 56 c-89 85 -91 86 -99 61z"/>
<path d="M2442 1785 l-133 -133 97 -94 c54 -51 116 -111 139 -133 23 -22 81
-77 128 -122 48 -46 90 -83 94 -83 5 0 62 54 128 120 l119 120 -39 42 c-22 23
-42 45 -45 48 -7 7 -122 130 -244 263 -54 59 -102 107 -105 106 -3 0 -66 -61
-139 -134z"/>
<path d="M2937 1290 c-78 -79 -116 -124 -111 -132 6 -11 127 -152 144 -168 3
-3 43 -50 90 -105 47 -55 87 -102 90 -105 3 -3 74 -85 159 -183 84 -98 168
-194 185 -212 58 -63 134 -79 234 -50 105 32 174 128 175 245 1 90 -13 110
-174 250 -72 63 -137 120 -143 125 -6 6 -76 66 -156 135 -80 68 -195 168 -256
222 -62 54 -113 98 -115 98 -2 0 -57 -54 -122 -120z"/>
<path d="M1083 997 c-297 -296 -393 -399 -393 -416 0 -36 234 -271 270 -271
20 0 106 81 418 393 344 345 392 396 392 423 0 25 -19 49 -118 147 -97 95
-124 117 -148 117 -25 0 -85 -56 -421 -393z"/>
</g>
</svg>
