<?xml version="1.0" encoding="utf-8"?>
<!-- Generator: Adobe Illustrator 26.3.1, SVG Export Plug-In . SVG Version: 6.00 Build 0)  -->
<svg version="1.1" id="Ebene_1" xmlns="http://www.w3.org/2000/svg" xmlns:xlink="http://www.w3.org/1999/xlink" x="0px" y="0px"
	 viewBox="0 0 43 43" style="enable-background:new 0 0 43 43;" xml:space="preserve">
<style type="text/css">
	.st0{fill-rule:evenodd;clip-rule:evenodd;fill:#FFFFFF;}
</style>
<g id="Gruppe_41">
	<path id="Pfad_5" class="st0" d="M37.3,0H5.7C2.6,0,0,2.5,0,5.6v0.1v31.5C0,40.4,2.5,43,5.6,43h0.1h31.5c3.1,0,5.7-2.5,5.7-5.6
		v-0.1V5.7C43,2.6,40.5,0,37.4,0H37.3z M21.5,32.3c-4.9,0-9-4-9-9s4-9,9-9c4.9,0,9,4,9,9l0,0c0,4.9-3.9,8.9-8.8,9
		C21.6,32.3,21.6,32.3,21.5,32.3L21.5,32.3z M39.9,14.8h-9.7L30,14.7c-4.7-4.6-12.3-4.6-17,0l-0.1,0.1H3.1v-9c0-1.4,1-2.6,2.4-2.6
		c0.1,0,0.1,0,0.2,0h31.5c1.4,0,2.6,1,2.6,2.4c0,0.1,0,0.1,0,0.2L39.9,14.8z"/>
	<path id="Pfad_6" class="st0" d="M26.9,23.3L26.9,23.3c0,3-2.4,5.4-5.4,5.4s-5.4-2.4-5.4-5.4l0,0c0-0.5,0.2-1.1,0.2-1.6
		c0.5,0.9,1.4,1.6,2.5,1.6c1.5,0,2.7-1.2,2.7-2.7c0-1.1-0.6-2.1-1.6-2.5c0.5,0,1.1-0.2,1.6-0.2c2.9-0.1,5.3,2.3,5.4,5.2
		C26.9,23.2,26.9,23.2,26.9,23.3z"/>
	<path id="Pfad_7" class="st0" d="M37.3,3.6H5.7c-1.1,0-2.1,0.8-2.1,2c0,0.1,0,0.1,0,0.2v8.6h9.1c4.9-4.8,12.7-4.8,17.6,0h9.1V5.7
		c0-1.1-0.8-2.1-2-2.2C37.4,3.6,37.3,3.6,37.3,3.6z M37.6,12c0,0.3-0.1,0.5-0.4,0.5h-0.1H31c-0.3,0-0.5-0.1-0.5-0.4V12V5.9
		c0-0.3,0.1-0.5,0.4-0.5H31h6.1c0.3,0,0.5,0.1,0.5,0.4v0.1V12z"/>
</g>
</svg>
