<?xml version="1.0" encoding="utf-8"?>
<!-- Generator: Adobe Illustrator 26.4.0, SVG Export Plug-In . SVG Version: 6.00 Build 0)  -->
<svg version="1.1" id="Ebene_1" xmlns="http://www.w3.org/2000/svg" xmlns:xlink="http://www.w3.org/1999/xlink" x="0px" y="0px"
	 viewBox="0 0 19.6 24" style="enable-background:new 0 0 19.6 24;" xml:space="preserve">
<style type="text/css">
	.st0{clip-path:url(#SVGID_00000146499887593587007040000007062078480166656398_);}
	.st1{fill-rule:evenodd;clip-rule:evenodd;fill:#FFFFFF;}
</style>
<g>
	<defs>
		<rect id="SVGID_1_" x="0" width="19.6" height="24"/>
	</defs>
	<clipPath id="SVGID_00000049901069251312202080000010665797220323528601_">
		<use xlink:href="#SVGID_1_"  style="overflow:visible;"/>
	</clipPath>
	<g id="Gruppe_117" style="clip-path:url(#SVGID_00000049901069251312202080000010665797220323528601_);">
		<path id="Pfad_158" class="st1" d="M7.9,6.1l-0.5-5C7.3-0.3,4.3-0.2,3.2,0.4c-4.7,2.2-3.3,8.5-1.6,12.3c3.2,6.2,6.8,9.9,10.7,10.9
			c3.1,1.1,7,0.3,7.3-3.5c0-0.4,0-0.9-0.2-1.3c-0.2-0.5-2-1.4-5.2-2.7c-0.6-0.2-1.3,0-2.2,0.8c-0.1,0.1-0.2,0.2-0.4,0.3
			c-0.4,0.4-1.1,0.4-1.5,0c-1.7-1.3-4.3-6-4.8-7.4C5.2,9.2,5.6,8.6,6.1,8.5C7.2,8.1,7.9,7.2,7.9,6.1"/>
	</g>
</g>
</svg>
