<?xml version="1.0" encoding="utf-8"?>
<!-- Generator: Adobe Illustrator 26.4.0, SVG Export Plug-In . SVG Version: 6.00 Build 0)  -->
<svg version="1.1" id="Ebene_1" xmlns="http://www.w3.org/2000/svg" xmlns:xlink="http://www.w3.org/1999/xlink" x="0px" y="0px"
	 viewBox="0 0 335 283" style="enable-background:new 0 0 335 283;" xml:space="preserve">
<style type="text/css">
	.st0{fill:#FFFFFF;}
	.st1{clip-path:url(#SVGID_00000098930035993577043010000001348184348168144808_);}
	.st2{fill-rule:evenodd;clip-rule:evenodd;fill:#FFFFFF;}
</style>
<g>
	<path id="Pfad_139" class="st0" d="M86,196.8v-15.7h-0.1l-2.8,15.7H81l-2.9-15.7H78v15.7h-2.8V175h4.4l2.4,13.6H82l2.5-13.6h4.2
		v21.8H86z"/>
	<path id="Pfad_140" class="st0" d="M99.9,196.8l-0.8-5.5h-3.6l-0.7,5.5h-3.4l3.6-21.8h4.4l3.7,21.8H99.9z M95.9,188.4h2.8l-1.4-10
		h-0.1L95.9,188.4z"/>
	<path id="Pfad_141" class="st0" d="M106.8,196.8v-18.7h-3.3V175h9.9v3.1h-3.2v18.7H106.8z"/>
	<path id="Pfad_142" class="st0" d="M118.1,196.8v-18.7h-3.3V175h9.9v3.1h-3.2v18.7H118.1z"/>
	<path id="Pfad_143" class="st0" d="M134.2,196.8V187h-3.6v9.8h-3.3V175h3.3v9h3.6v-9h3.3v21.8H134.2z"/>
	<rect id="Rechteck_89" x="141.5" y="175" class="st0" width="3.3" height="21.8"/>
	<path id="Pfad_144" class="st0" d="M156.2,196.8l-0.8-5.5h-3.6l-0.7,5.5h-3.4l3.6-21.8h4.4l3.7,21.8H156.2z M152.3,188.4h2.8
		l-1.4-10h-0.1L152.3,188.4z"/>
	<g id="Gruppe_108">
		<g>
			<defs>
				<rect id="SVGID_1_" x="0" width="335" height="283"/>
			</defs>
			<clipPath id="SVGID_00000008121079883129257130000017844844915623841202_">
				<use xlink:href="#SVGID_1_"  style="overflow:visible;"/>
			</clipPath>
			<g id="Gruppe_107" style="clip-path:url(#SVGID_00000008121079883129257130000017844844915623841202_);">
				<path id="Pfad_145" class="st0" d="M167.9,180.9c-0.1-1.9-0.6-3.2-1.9-3.2c-1.1,0-1.6,0.7-1.6,1.9c0,4.6,6.7,5.6,6.7,12.1
					c0,3.4-1.9,5.4-5.2,5.4c-3.5,0-4.8-2-5-5.9l3.1-0.2c0.2,2.3,0.6,3.3,2,3.3c1.2,0,1.8-0.9,1.8-2.3c0-4.8-6.6-5.7-6.6-12
					c0-3.1,1.6-5.1,4.7-5.1c3.6,0,4.7,2.4,4.9,5.9L167.9,180.9z"/>
				<path id="Pfad_146" class="st0" d="M186.4,196.8l-2.8-10.3l-1.4,3.2v7.2H179V175h3.2v9.1h0.1l3.8-9.1h3.3l-3.5,7.8l3.9,14
					L186.4,196.8z"/>
				<path id="Pfad_147" class="st0" d="M191.8,196.8V175h3.3v18.7h5.7v3.1H191.8z"/>
				<path id="Pfad_148" class="st0" d="M203.2,196.8V175h8.9v3.1h-5.6v6h4.4v3h-4.4v6.7h5.9v3.1H203.2z"/>
				<rect id="Rechteck_90" x="215.3" y="175" class="st0" width="3.3" height="21.8"/>
				<path id="Pfad_149" class="st0" d="M229.8,196.8l-4.6-14.6h-0.1v14.6h-2.9V175h3.6l3.8,12.3h0.1V175h2.9v21.8H229.8z"/>
				<path id="Pfad_150" class="st0" d="M236.3,196.8V175h8.9v3.1h-5.6v6h4.4v3h-4.4v6.7h5.9v3.1H236.3z"/>
				<path id="Pfad_151" class="st0" d="M255.5,196.8l-2.3-9.3h-1.5v9.3h-3.3V175h4.4c3.9,0,5.9,1.5,5.9,5.8c0,2.7-1,4.4-2.5,5.2
					l3,10.8L255.5,196.8z M252.7,184.7c1.6,0,2.4-0.9,2.4-3.6c0-3-1.2-3.3-2.7-3.3h-0.7v6.9H252.7z"/>
				<path id="Pfad_152" class="st0" d="M263.6,196.8v-18.7h-3.3V175h9.9v3.1H267v18.7H263.6z"/>
				<path id="Pfad_153" class="st0" d="M149.5,218h3.3v-2.2h-3.3v-4.5h4.2v-2.3H147v16.5h6.9v-2.3h-4.4V218z M155.9,225.4h2.5v-16.5
					h-2.5V225.4z M139.9,212.4c0-0.9,0.3-1.4,1.2-1.4c1,0,1.4,1,1.4,2.4l2.2-0.1c-0.2-2.6-1-4.5-3.7-4.5c-2.3,0-3.6,1.5-3.6,3.9
					c0,4.7,5,5.5,5,9.1c0,1.1-0.5,1.8-1.4,1.8c-1,0-1.4-0.8-1.5-2.5l-2.3,0.1c0.2,2.9,1.1,4.5,3.8,4.5c2.5,0,3.9-1.6,3.9-4.1
					C145,216.6,139.9,215.9,139.9,212.4 M160.1,211.3h2.5v14.1h2.5v-14.2h2.5v-2.3h-7.5V211.3z M194.9,208.8c-2.8,0-3.9,2.6-3.9,8.5
					c0,6,1.1,8.3,3.9,8.3c2.8,0,3.9-2.4,3.9-8.3C198.8,211.3,197.8,208.8,194.9,208.8 M194.9,223.5c-1.1,0-1.4-1.6-1.4-6.3
					c0-4.6,0.3-6.4,1.4-6.4c1.1,0,1.4,1.8,1.4,6.4C196.3,221.9,196,223.5,194.9,223.5 M185.6,208.8c-2.8,0-3.9,2.6-3.9,8.5
					c0,6,1.1,8.3,3.9,8.3c2.8,0,3.9-2.4,3.9-8.3C189.5,211.3,188.5,208.8,185.6,208.8 M185.6,223.5c-1.1,0-1.4-1.6-1.4-6.3
					c0-4.6,0.3-6.4,1.4-6.4s1.4,1.8,1.4,6.4C187,221.9,186.7,223.5,185.6,223.5 M205.7,216.6c1.3-0.9,2.1-2.4,2.1-3.9
					c0-2.3-1.2-3.9-3.8-3.9c-2.5,0-3.7,1.6-3.7,3.9c0,1.6,0.8,3.1,2,4.1c-1.4,1-2.3,2.6-2.3,4.4c0,2.6,1.2,4.5,4,4.5
					c2.7,0,4.1-1.9,4.1-4.5C208,219.3,207.1,217.6,205.7,216.6 M204,210.7c0.9,0,1.4,0.8,1.4,1.9c0.1,1.1-0.3,2.1-1,2.9
					c-1-0.7-1.6-1.7-1.7-2.9C202.6,211.5,203.1,210.7,204,210.7 M204,223.6c-1.1,0-1.6-0.8-1.6-2.4c0-1.2,0.4-2.4,1.3-3.3
					c1.1,0.9,2,1.9,2,3.3C205.6,222.7,205,223.6,204,223.6 M180.2,213c0-2.6-1-4.3-3.7-4.3c-2.5,0-3.6,1.5-3.7,4.8h2.2
					c0.1-1.8,0.5-2.7,1.4-2.7c1,0,1.3,1,1.3,2.2c0,2.3-1.9,4.4-3.4,6.8c-0.9,1.3-1.5,2.8-1.6,4.4v1.1h7.5v-2.2h-4.8
					c0.2-0.8,0.5-1.6,1-2.3C177.8,218.6,180.2,215.8,180.2,213"/>
				<path id="Pfad_154" class="st0" d="M168.8,62.5l4.2-4.2l-16.7-17.8l8.2-3.3l-2.3-3.7l-13.8,4l-7.9,29h0.5l10-20.7L168.8,62.5z
					 M167.1,50.5l6.9-13.7c-2.2,0.5-4.5-0.6-5.5-2.7l-5.8,11.7L167.1,50.5z M175.1,36.5l-1.7,3.5l6.7,13.6c0.7,1.5,2.6,2.1,4.1,1.4
					L195.1,73h1.1l-18.7-38.8C176.9,35.2,176.1,36,175.1,36.5 M173,36c2.2,0,4-1.8,4-4c0-2.2-1.8-4-4-4c-2.2,0-4,1.8-4,4v0
					C169,34.2,170.8,36,173,36 M173,29.5c1.4,0,2.5,1.1,2.5,2.5s-1.1,2.5-2.5,2.5c-1.4,0-2.5-1.1-2.5-2.5S171.6,29.5,173,29.5
					 M150.9,73l10-16.5l-2.1-2L149.8,73H150.9z M183.9,70l-3.6,3.6c1.7,1.8,8.5,9.9,10.2,11.7c1.2,1.2,3.6,0.7,4.7-0.4
					c1.1-1.1,1.6-3.5,0.4-4.7C193.8,78.5,185.7,71.7,183.9,70 M195.6,37.5c-1.8-1.7-3.8-3.2-6-4.2c-0.7-0.3-1-0.1-1.3,0.2l-5.5,5.5
					c-0.3,0.3-0.3,0.8,0,1.2c0,0,0,0,0,0l2.5,2.5c0.6-0.6,1.6-0.6,2.3,0c0.5,0.6,0.6,1.4,0.1,2.1l-2.9,2.7l1.9,3.9l3.8-3.6
					c4.5,0.1,13.6,13.7,13.6,13.7l0.9,0c0-0.5,0-0.9,0-1.4C205,51.6,201.6,43.5,195.6,37.5 M161.7,70.5c-0.3-0.3-0.9-0.3-1.2,0
					l-11.1,11.1c-0.3,0.3-0.3,0.9,0,1.2c0,0,0,0,0,0l3.1,3.1c0.3,0.3,0.9,0.3,1.2,0l11.1-11.1c0.3-0.3,0.3-0.9,0-1.2L161.7,70.5z
					 M179.3,54l-0.3-0.5l-16.4,16.5l2.9,2.9L182.2,56C180.9,55.8,179.9,55.1,179.3,54 M176.9,62.5l-4,4l6.7,6.4l3.6-3.6L176.9,62.5z
					"/>
				<path id="Pfad_155" class="st2" d="M311.4,154.3c-1,0-2-0.1-2.9-0.4c-2.1,2.7-5.4,4.2-8.8,4.3c-1.3,0-2.5-0.2-3.7-0.7
					c-8.9,68-71.3,116-139.4,107.1c-53.8-7.1-96.9-48.2-106.3-101.7c-1.2,0.4-2.4,0.5-3.7,0.6c-6.1,0-9.9-4.1-11.4-12.2l-3.2,1.4
					l-0.4,0.2c6.3,77.9,74.5,136,152.4,129.7c68.7-5.5,123.4-59.8,129.6-128.4C312.9,154.2,312.2,154.3,311.4,154.3 M55.8,98.2
					c0.1,0.2,0.1,0.4,0.1,0.7c23.5-64.5,94.9-97.7,159.4-74.2c34.8,12.7,62.1,40.2,74.5,75c1.5-3.1,4.5-5,7.9-5.1h0.2
					c3.4,0,6.5,1.7,8.4,4.4c0.1-1.3,0.2-2.4,0.2-3.4c-25.4-73.9-105.9-113.3-179.8-88C86.3,21.5,54.3,53,39.7,93.3
					c1.6-0.7,3.4-1.1,5.2-1.1C53,92.2,55.4,95.4,55.8,98.2"/>
				<path id="Pfad_156" class="st0" d="M326.7,133.8c4.8-2.9,8.3-7.1,8.3-13.4c0-3.4-2.3-5.9-6.3-5.9c-8.1,0-10.6,9-13,17.7
					l-0.3,1.2v-0.3c0-3.5,1.6-18,3-31.9l0.3-3.7c-0.1-2-3.7-2.9-5.9-2.9c-1.2,0-2,0.1-2.3,0.5c-0.1,6.1-2.2,16.1-3.6,38.5
					c-0.1,1.2-0.4,9.5-0.4,10.3c0,0.3,0,0.5,0,0.8c-1.7,3.7-3.4,5.9-4.8,5.9c-1.9,0-2.4-4.1-2.4-7.7c0-6.9,1.8-21.1,1.8-24.6
					c0-3.6-1.9-4.5-4.7-4.5c-1,0-1.9,0.1-2.8,0.5c-1.1,8.3-1.8,16.6-2,24.9c0,0.2,0,0.4,0,0.7c-2.6,6.4-4.1,8.8-5.9,8.8
					c-1.9,0-2.1-2.9-2.1-6.7c0-8.8,1.4-15.5,1.4-19.7c0-5.3-2.3-7.8-6.3-7.8c-7.5,0-11.2,10.5-13.5,19.7c0-4.8,0.4-10.3,0.4-15.1
					c0-3.7-3.6-4-5.5-4c-0.9,0-1.8,0.2-2.6,0.4c0,4.6-0.8,18.8-1.1,26.4c-1.9,5.1-3.8,8.7-5.6,8.7c-1.6,0-2.2-3.3-2.2-7.4
					c0-8,1.8-15.9,1.8-20.6c0-5.6-2.5-8.1-6.5-8.1c-8.1,0-11.1,11.8-13,20.2c0-0.8,0.1-1.6,0.2-2.5c0-3.4,1.6-17.5,3-31l0.4-3.7
					c-0.1-2-3.7-2.9-5.9-2.9c-1.1,0-2,0.1-2.3,0.5c-0.1,6.1-2.2,16.1-3.6,38.5c-0.1,1.2-0.2,4-0.3,6.4c-3.5,4.1-8.1,6.2-12.3,6.2
					c-5.1,0-8-4.1-8-11.1c0-9.8,3.8-18.5,8.2-18.5c2.3,0,3,2.2,3,4.6c0,3.7-1.7,5.7-3.4,6.7c0.9,0.3,1.9,0.5,2.9,0.5
					c5.3,0,7.6-3.7,7.6-7s-2.1-7.8-9.5-7.8c-10.9,0-17.3,10.3-17.3,20.4c0,1,0.1,1.9,0.2,2.9c-3.5,5.5-7.6,9.8-12.5,9.8
					c-4.8,0-6.6-5.3-7-10.8l2.8-1.3c7-3.3,14-7,14-13.3c0-5-4.2-7.7-9.8-7.7c-11.1,0-15.8,11.1-15.8,19.8c0,2.1,0.3,4.2,0.8,6.2
					c-2.5,6.1-5.5,10.8-7.8,10.8c-2,0-2.7-3.5-2.7-9.6c0-9.1,1.7-19.6,3-27.3c8-0.4,15-2,15.2-7.7c0-1-0.3-2.1-1.6-1.2
					c-3.8,2.9-8.3,4.6-13.1,5.1c0.5-1.9,0.8-3.9,1-5.9c0-2.7-3.1-3.7-6-3.7c-0.7,0-1.1,0-1.4,0.5c-0.3,1.1-1,4.7-1.8,10.2
					c-1.8,0.1-3.5,0.2-5.2,0.5c-1.4,0.2-1.8,2.2-1.8,2.2h6.7c-0.7,5-1.5,10.7-2,15.8c-3.4,1.8-6.6,4-9.5,6.5
					c-3-5.2-9.1-6.6-9.1-12.9c0-4,2.6-6.4,4.9-6.4c1-0.1,1.9,0.7,2,1.7c0,0.2,0,0.3,0,0.5c0,2-1.3,4.3-2.9,6.3
					c5.5,0,8.8-2.7,8.8-6.2c0-3.1-2.5-5.1-7-5.1c-7-0.1-12.8,5.4-12.9,12.4c0,0.2,0,0.3,0,0.5c-0.1,2.8,1,5.4,2.9,7.4l-0.1,0.3
					c-4.3,11.2-6.3,14.6-7.8,14.6s-1.9-3-1.9-7.4c0-8.4,0.8-15.3,0.8-21.9c-0.1-2.5-0.8-4.4-4.7-4.4c-1,0-2.1,0.1-3.1,0.4
					c-0.9,2.9-2.2,10.2-4.2,17.8c-2.5,9.6-4.3,13.5-6.2,13.5c-1.4,0-2-2.2-2-5.9c0-7.8,1.4-16.1,1.4-21.7v-3
					c-0.1-2.1-4.1-2.8-6.3-2.8c-0.9,0-1.9,0.2-2,0.7c0.1,12.7-1.4,20.2-1.4,25.3c0,1.2,0.1,2.5,0.3,3.7c-1.7,4.3-3.5,7.3-5.2,7.3
					c-2,0-2.4-4.6-2.4-7.9c0-7,1.8-15.7,1.8-19.2c0-3.3-2.4-4.2-4.7-4.2c-1,0-2,0.2-3,0.5c-1.2,5-5.6,26.3-10.2,26.3
					c-2,0-2.8-3.7-2.8-7.3c0-7.6,3.7-20.9,15.5-20.9c2,0,4.1,0.6,5.8,1.7c0.6-0.6,0.9-1.4,0.8-2.2c0-2.8-5.3-3.5-8.1-3.5
					c-13.3,0-22.5,11.3-22.5,23c0,6.4,2.9,12.8,9.1,12.8c5.4,0,8.6-6.7,10.6-13.2v2.6c0,5.8,0.9,14.9,7.6,14.9
					c3.7,0,6.3-2.8,8.6-7.7c1.4,3.2,3.9,4.6,6.4,4.6c6.9,0,9.6-10.6,11.5-18.6c0,0.8,0.1,5.8,0.1,8.8c0,5.8,2.5,11.6,7.3,11.6
					c5.7,0,7.5-5.5,12.1-17.3c2.1,1.9,4.3,3.6,5.1,6.6c-4.3,4.2-9.7,8.5-9.7,14c0,3.2,1.8,5.3,4.9,5.3c7,0,13-10.7,13-19
					c0-1.5-0.2-2.9-0.7-4.3c2.6-2.3,5.4-4.2,8.4-5.9c-0.2,2.6-0.4,4.9-0.4,6.8c0,6.9,1.6,15.1,8.3,15.1c4.4,0,7.9-3,11.3-11
					c2.1,4.4,5.8,7.5,11.1,7.5c7.1,0,12-5.2,15.7-10.8c1.6,5.5,5.7,10.1,13.3,10.1c5.6-0.1,10.9-2.4,14.7-6.5c0,0.3,0,0.5,0,0.7
					c0,4.2,0.4,6.1,4.4,6.1c1,0,1.9-0.1,2.9-0.4c1.4-4.2,2-10.2,4.7-19c1.9-6.4,4.6-12.4,6.8-12.4c1.1,0,1.5,1.2,1.5,2.7
					c0,2.9-1.9,14.2-1.9,20.1c0,8.2,1.9,12.9,7.8,12.9c3.2,0,5.5-2.2,7.8-6.9c0.3,1.9,1.4,3,4.5,3c0.9,0,1.7-0.1,2.5-0.4
					c1.1-3.2,2.3-10.3,4-15.7c2-7.3,5.6-15.5,8.2-15.5c0.9,0,1.4,0.6,1.4,2c0,2-1.6,11.1-1.6,19.2c0,6.2,1.5,12.8,7.4,12.8
					c3.9,0,6.3-2.8,9.1-8.7c0.5,5.3,2.3,10.3,7.3,10.3c3,0,5.4-1.8,7.7-6c0.6,1.4,1.7,2.1,4,2.1c0.9,0,1.9-0.1,2.8-0.4
					c0.8-2.9,1.8-7.1,2.9-11.8c0.9-0.3,1.8-0.5,2.7-0.9c1.6,13.5,5.3,16.8,9.9,16.8c2.2,0,4.2-1.1,5.4-2.9
					C332.4,149.3,329.2,147.1,326.7,133.8 M127.9,158.4c-1.2,0-2.3-0.9-2.3-2.9c0-3.4,3.6-7.2,7.3-10.8
					C132.9,153.4,130.7,158.4,127.9,158.4 M182.3,117.2c1.8,0,3,1.3,3,4c0,4.5-3.1,8.9-7.7,11.1l-3,1.3
					C174.6,124.2,178.2,117.2,182.3,117.2 M317.6,134.8c0.3-1.3,0.7-2.8,1.1-4.1c2-7,4.2-12.4,7.2-12.4c1,0,1.5,0.7,1.5,2.5
					C327.5,125.6,323.6,132.5,317.6,134.8 M299.3,109.7c2.4,0,4.8-0.9,4.8-4.2c0.1-3.6-2.8-6.5-6.3-6.6c-2.6-0.1-4.7,2-4.8,4.6
					c0,0.1,0,0.2,0,0.3C293,106.9,295.1,109.7,299.3,109.7 M47.2,140.4c0.1-5,0.4-10.1,1-15.1c7.1-0.7,9.6-2.4,9.6-6.1
					c0-0.9-0.3-2.2-0.8-2.2c-0.2,0-0.4,0-0.5,0.1c-2.9,2.1-5,3.6-7.9,4.5c1.2-8.7,2.5-16.6,2.9-20.1c0.2-0.8,0.2-1.6,0-2.4
					c-0.2-2.1-3.5-2.6-6.8-2.6c-1.1,0-1.5,0-1.9,0.8c-0.8,6.1-2.3,15.5-3.3,25.7c-2.5,0.2-4.6,0.3-8.4,0.3c0.2-3.6,0.3-7,0.3-10.1
					c0-11.6-3.3-18.7-14.3-18.7C4.3,94.4,0,104.1,0,112.2c0,7.8,4.2,13.4,10.5,13.4c3.6,0,5.9-2,7.8-4.2l-0.3-0.7
					c-1,0.3-2,0.4-3.1,0.4c-5.8,0-9.3-5-9.3-11.9c0-7.6,4.4-12.4,9.3-12.4c6.1,0,8.1,7.5,8.1,14.8c0,10.5-2.5,33.5-2.5,36
					c0,1.9,1.6,2.7,4.4,2.7c1.4,0.1,2.7-0.1,4-0.5c0.6-7,1.4-15.7,2-23.9c3.5,0,5.6,0,8.4-0.1c-0.5,5.3-0.8,10.8-0.8,16.1
					c0,11.3,2.4,17.4,8,17.4c1.4,0,4.2-0.5,5.6-2.1C48.1,153.9,47.2,148.2,47.2,140.4"/>
			</g>
		</g>
	</g>
</g>
</svg>
