<?xml version="1.0" encoding="utf-8"?>
<!-- Generator: Adobe Illustrator 26.4.0, SVG Export Plug-In . SVG Version: 6.00 Build 0)  -->
<svg version="1.1" id="Ebene_1" xmlns="http://www.w3.org/2000/svg" xmlns:xlink="http://www.w3.org/1999/xlink" x="0px" y="0px"
	 viewBox="0 0 190 56.8" style="enable-background:new 0 0 190 56.8;" xml:space="preserve">
<style type="text/css">
	.st0{clip-path:url(#SVGID_00000067922464119657219960000008239661290691834285_);}
	.st1{fill:#FFFFFF;}
</style>
<g>
	<defs>
		<rect id="SVGID_1_" y="0" width="190" height="56.8"/>
	</defs>
	<clipPath id="SVGID_00000070113827476015784050000011102307291322062989_">
		<use xlink:href="#SVGID_1_"  style="overflow:visible;"/>
	</clipPath>
	<g id="Gruppe_58" style="clip-path:url(#SVGID_00000070113827476015784050000011102307291322062989_);">
		<path id="Pfad_26" class="st1" d="M185.3,22.3c2.7-1.7,4.7-4,4.7-7.6c0.1-1.8-1.3-3.3-3.1-3.4c-0.1,0-0.3,0-0.4,0
			c-4.6,0-6,5.1-7.4,10.1l-0.1,0.7V22c0-2,0.9-10.2,1.7-18.1l0.2-2.1c0-1.1-2.1-1.6-3.3-1.6c-0.7,0-1.2,0-1.3,0.3
			c0,3.4-1.3,9.1-2,21.9c0,0.7-0.2,5.4-0.2,5.8c0,0.2,0,0.3,0,0.5c-1,2.1-1.9,3.3-2.7,3.3c-1.1,0-1.3-2.3-1.3-4.3c0-3.9,1-12,1-14
			c0-2-1.1-2.5-2.6-2.5c-0.5,0-1.1,0.1-1.6,0.3c-0.6,4.7-1,9.4-1.1,14.1c0,0.1,0,0.2,0,0.4c-1.5,3.6-2.3,5-3.4,5
			c-1.1,0-1.2-1.6-1.2-3.8c0-5,0.8-8.8,0.8-11.2c0-3-1.3-4.5-3.6-4.5c-4.2,0-6.4,6-7.7,11.2c0-2.7,0.2-5.8,0.2-8.5
			c0-2.1-2-2.3-3.1-2.3c-0.5,0-1,0.1-1.5,0.3c0,2.6-0.4,10.6-0.6,14.9c-1.1,2.9-2.1,4.9-3.1,4.9c-0.9,0-1.3-1.9-1.3-4.2
			c0-4.6,1-9,1-11.7c0-3.2-1.4-4.6-3.7-4.6c-4.6,0-6.3,6.7-7.4,11.5c0-0.5,0-0.9,0.1-1.4c0-1.9,0.9-9.9,1.7-17.6l0.2-2.1
			c0-1.1-2.1-1.6-3.4-1.6c-0.6,0-1.2,0-1.3,0.3c0,3.4-1.3,9.1-2,21.9c0,0.7-0.1,2.3-0.2,3.7c-1.7,2.1-4.2,3.4-7,3.5
			c-2.9,0-4.5-2.3-4.5-6.3c0-5.6,2.2-10.5,4.7-10.5c1.3,0,1.7,1.3,1.7,2.6c0.1,1.5-0.6,3-1.9,3.8c0.5,0.2,1.1,0.3,1.6,0.3
			c2.2,0.2,4.1-1.4,4.3-3.6c0-0.1,0-0.3,0-0.4c0-1.8-1.2-4.5-5.4-4.5c-6.2,0-9.8,5.8-9.8,11.6c0,0.5,0,1.1,0.1,1.6
			c-2,3.1-4.3,5.5-7.1,5.5c-2.7,0-3.8-3-3.9-6.1l1.6-0.8c3.9-1.9,7.9-3.9,7.9-7.5c0-2.8-2.4-4.4-5.5-4.4c-6.3,0-9,6.3-9,11.2
			c0,1.2,0.1,2.4,0.5,3.5c-1.4,3.5-3.1,6.1-4.4,6.1c-1.2,0-1.5-2-1.5-5.5c0.2-5.2,0.7-10.4,1.7-15.5c4.5-0.2,8.5-1.2,8.6-4.3
			c0-0.6-0.1-1.2-0.9-0.7c-2.2,1.6-4.7,2.6-7.4,2.9c0.3-1.1,0.4-2.2,0.5-3.3c0-1.5-1.8-2.1-3.4-2.1c-0.4,0-0.6,0-0.8,0.3
			c-0.1,0.6-0.6,2.7-1,5.8c-1,0-2,0.1-3,0.3c-0.8,0.1-1,1.2-1,1.2h3.8c-0.4,2.8-0.9,6.1-1.2,8.9c-1.9,1-3.7,2.3-5.4,3.7
			c-1.7-2.9-5.1-3.7-5.1-7.3c0-2.3,1.5-3.6,2.8-3.6c0.6-0.1,1.1,0.4,1.2,1c0,0.1,0,0.2,0,0.3c-0.2,1.3-0.7,2.6-1.6,3.6
			c3.1,0,5-1.5,5-3.5c0-1.8-1.4-2.9-3.9-2.9c-4-0.1-7.2,3.1-7.3,7c0,0.1,0,0.2,0,0.3c0,1.6,0.6,3.1,1.7,4.2l-0.1,0.2
			C69,29,67.9,31,67.1,31S66,29.2,66,26.8c0-4.8,0.5-8.6,0.5-12.4c0-1.4-0.4-2.5-2.6-2.5c-0.6,0-1.2,0.1-1.7,0.2
			c-0.5,1.7-1.3,5.8-2.4,10.1c-1.4,5.5-2.5,7.6-3.5,7.6c-0.8,0-1.1-1.3-1.1-3.3c0-4.4,0.8-9.1,0.8-12.3v-1.7c0-1.2-2.3-1.6-3.6-1.6
			c-0.5,0-1.1,0.1-1.1,0.4c0,7.2-0.8,11.4-0.8,14.4c0,0.7,0.1,1.4,0.2,2.1c-1,2.5-2,4.1-3,4.1c-1.2,0-1.3-2.6-1.3-4.5
			c0-4,1-8.9,1-10.9c0-1.9-1.3-2.4-2.6-2.4c-0.6,0-1.1,0.1-1.7,0.3c-0.7,2.8-3.2,14.9-5.8,14.9c-1.2,0-1.6-2.1-1.6-4.1
			c0-4.3,2.1-11.8,8.8-11.8c1.2,0,2.3,0.3,3.3,1c0.3-0.3,0.5-0.8,0.5-1.3c0-1.6-3-2-4.6-2c-7.1,0.1-12.8,5.9-12.7,13.1
			c0,3.6,1.6,7.3,5.2,7.3c3.1,0,4.9-3.8,6-7.5v1.5c0,3.3,0.5,8.4,4.3,8.4c2.1,0,3.6-1.6,4.9-4.4c0.5,1.5,2,2.6,3.6,2.6
			c3.9,0,5.4-6,6.5-10.6c0,0.5,0,3.3,0,5c0,3.3,1.4,6.6,4.1,6.6c3.3,0,4.3-3.1,6.8-9.8c1.2,1.1,2.4,2,2.9,3.7
			c-2.5,2.4-5.5,4.8-5.5,7.9c-0.2,1.5,0.9,2.8,2.3,3c0.2,0,0.3,0,0.5,0c4,0,7.4-6.1,7.4-10.8c0-0.8-0.1-1.6-0.4-2.4
			c1.5-1.3,3.1-2.4,4.8-3.3c-0.1,1.5-0.2,2.8-0.2,3.8c0,3.9,0.9,8.5,4.7,8.5c2.5,0,4.5-1.7,6.4-6.2c1,2.6,3.5,4.3,6.3,4.3
			c4.1,0,6.8-3,8.9-6.1c0.8,3.5,4,5.9,7.5,5.7c3.2,0,6.2-1.4,8.3-3.7c0,0.2,0,0.3,0,0.4c0,2.4,0.2,3.4,2.5,3.4
			c0.6,0,1.1-0.1,1.6-0.2c0.8-2.4,1.2-5.8,2.6-10.8c1.1-3.6,2.6-7,3.9-7c0.6,0,0.9,0.7,0.9,1.5c0,1.7-1.1,8-1.1,11.4
			c0,4.7,1.1,7.3,4.4,7.3c1.8,0,3.1-1.2,4.4-3.9c0.2,1.1,0.8,1.7,2.6,1.7c0.5,0,1-0.1,1.4-0.2c0.6-1.8,1.3-5.8,2.3-8.9
			c1.2-4.1,3.2-8.8,4.7-8.8c0.5,0,0.8,0.4,0.8,1.1c0,1.1-0.9,6.3-0.9,10.9c0,3.5,0.9,7.2,4.2,7.2c2.2,0,3.6-1.6,5.2-4.9
			c0.3,3,1.3,5.8,4.2,5.8c1.7,0,3.1-1,4.4-3.4c0.3,0.8,1,1.2,2.3,1.2c0.5,0,1.1-0.1,1.6-0.2c0.5-1.6,1-4,1.6-6.7
			c0.5-0.2,1-0.3,1.5-0.5c0.9,7.6,3,9.5,5.6,9.5c1.2,0,2.4-0.6,3.1-1.6C188.5,31.1,186.7,29.9,185.3,22.3 M72.6,36.3
			c-0.7,0-1.3-0.5-1.3-1.6c0-1.9,2-4.1,4.1-6.1C75.4,33.4,74.1,36.3,72.6,36.3 M103.4,12.9c1,0,1.7,0.8,1.7,2.3
			c-0.1,2.8-1.8,5.2-4.4,6.3L99,22.2C99,16.9,101.1,12.9,103.4,12.9 M180.1,22.9c0.2-0.8,0.4-1.6,0.6-2.3c1.1-3.9,2.4-7,4.1-7
			c0.6,0,0.9,0.4,0.9,1.4C185.4,18.4,183.3,21.5,180.1,22.9 M169.7,8.7c1.4,0,2.7-0.5,2.7-2.4c0-2-1.6-3.7-3.6-3.8
			c-1.5,0-2.7,1.1-2.7,2.6c0,0.1,0,0.1,0,0.2c0,1.8,1.4,3.3,3.2,3.4C169.5,8.7,169.6,8.7,169.7,8.7 M26.7,26.1
			c0-2.9,0.2-5.7,0.6-8.5c4-0.4,5.4-1.4,5.4-3.4c0-0.5-0.1-1.3-0.4-1.3c-0.1,0-0.2,0-0.3,0.1c-1.3,1.1-2.8,2-4.5,2.5
			C28.2,10.4,29,6,29.2,4c0.1-0.4,0.1-0.9,0-1.4c-0.1-1.2-2-1.5-3.8-1.5c-0.6,0-0.9,0-1.1,0.5c-0.5,3.4-1.3,8.8-1.9,14.6
			c-1.4,0.1-2.6,0.2-4.8,0.2c0.1-2,0.2-4,0.2-5.7C17.8,4,15.9,0,9.7,0C2.5,0,0,5.5,0,10.1c0,4.5,2.4,7.6,6,7.6
			c1.8,0,3.4-0.9,4.4-2.4l-0.2-0.4c-0.6,0.2-1.1,0.2-1.7,0.3c-3.3,0-5.2-2.8-5.2-6.7c0-4.3,2.5-7,5.2-7c3.5,0,4.6,4.3,4.6,8.4
			c0,6-1.4,19-1.4,20.4c0,1.1,0.9,1.5,2.5,1.5c0.8,0,1.5-0.1,2.3-0.3c0.3-3.9,0.8-8.9,1.1-13.6c2,0,3.2,0,4.7-0.1
			c-0.3,3-0.4,6.1-0.4,9.1c0,6.4,1.3,9.9,4.5,9.9c1.2,0,2.3-0.4,3.2-1.2C27.3,33.7,26.7,30.5,26.7,26.1"/>
		<path id="Pfad_27" class="st1" d="M36.4,56.6V45.5h0l-2,11.1h-1.5l-2-11.1h0v11.1h-2V41.2h3.1l1.7,9.6h0l1.8-9.6h3v15.4L36.4,56.6
			z"/>
		<path id="Pfad_28" class="st1" d="M46.3,56.6l-0.5-3.9h-2.6l-0.5,3.9h-2.4l2.6-15.4H46l2.6,15.4L46.3,56.6z M43.5,50.7h2l-1-7.1
			h-0.1L43.5,50.7z"/>
		<path id="Pfad_29" class="st1" d="M51.2,56.6V43.3h-2.3v-2.2h7v2.2h-2.3v13.3H51.2z"/>
		<path id="Pfad_30" class="st1" d="M59.2,56.6V43.3h-2.3v-2.2h7v2.2h-2.3v13.3H59.2z"/>
		<path id="Pfad_31" class="st1" d="M70.6,56.6v-7H68v7h-2.3V41.2H68v6.4h2.5v-6.4h2.3v15.4L70.6,56.6z"/>
		<rect id="Rechteck_33" x="75.7" y="41.2" class="st1" width="2.4" height="15.4"/>
		<path id="Pfad_32" class="st1" d="M86.2,56.6l-0.5-3.9h-2.6l-0.5,3.9h-2.4l2.6-15.4h3.1l2.6,15.4H86.2z M83.4,50.7h2l-1-7.1h-0.1
			L83.4,50.7z"/>
		<path id="Pfad_33" class="st1" d="M94.4,45.3C94.4,44,94,43,93.1,43c-0.8,0-1.1,0.5-1.1,1.4c0,3.3,4.8,4,4.8,8.5
			c0,2.4-1.3,3.8-3.7,3.8c-2.5,0-3.4-1.4-3.5-4.2l2.2-0.1c0.1,1.6,0.5,2.3,1.4,2.3c0.8,0,1.3-0.6,1.3-1.7c0-3.4-4.7-4.1-4.7-8.5
			c0-2.2,1.2-3.6,3.3-3.6c2.5,0,3.4,1.7,3.5,4.2L94.4,45.3z"/>
		<path id="Pfad_34" class="st1" d="M107.6,56.6l-2-7.3l-1,2.2v5.1h-2.3V41.2h2.3v6.5h0l2.7-6.5h2.4l-2.5,5.5l2.8,9.9L107.6,56.6z"
			/>
		<path id="Pfad_35" class="st1" d="M111.4,56.6V41.2h2.3v13.3h4v2.2H111.4z"/>
		<path id="Pfad_36" class="st1" d="M119.5,56.6V41.2h6.3v2.2h-3.9v4.2h3.1v2.1h-3.1v4.8h4.2v2.2H119.5z"/>
		<rect id="Rechteck_34" x="128" y="41.2" class="st1" width="2.4" height="15.4"/>
		<path id="Pfad_37" class="st1" d="M138.3,56.6L135,46.3h0v10.3h-2V41.2h2.6l2.7,8.7h0v-8.7h2v15.4H138.3z"/>
		<path id="Pfad_38" class="st1" d="M142.9,56.6V41.2h6.3v2.2h-3.9v4.2h3.1v2.1h-3.1v4.8h4.2v2.2H142.9z"/>
		<path id="Pfad_39" class="st1" d="M156.5,56.6l-1.7-6.6h-1v6.6h-2.3V41.2h3.1c2.7,0,4.1,1.1,4.1,4.1c0,1.9-0.7,3.1-1.8,3.7
			l2.1,7.6L156.5,56.6z M154.5,48.1c1.2,0,1.7-0.6,1.7-2.5c0-2.1-0.8-2.3-1.9-2.3h-0.5v4.9L154.5,48.1z"/>
		<path id="Pfad_40" class="st1" d="M162.2,56.6V43.3h-2.3v-2.2h7v2.2h-2.3v13.3H162.2z"/>
	</g>
</g>
</svg>
