<?xml version="1.0" encoding="utf-8"?>
<!-- Generator: Adobe Illustrator 26.4.0, SVG Export Plug-In . SVG Version: 6.00 Build 0)  -->
<svg version="1.1" id="Ebene_1" xmlns="http://www.w3.org/2000/svg" xmlns:xlink="http://www.w3.org/1999/xlink" x="0px" y="0px"
	 viewBox="0 0 265 265" style="enable-background:new 0 0 265 265;" xml:space="preserve">
<style type="text/css">
	.st0{fill:#E3D400;}
	.st1{enable-background:new    ;}
	.st2{clip-path:url(#SVGID_00000039846032925265455900000009452350256666881955_);}
	.st3{fill:none;}
</style>
<g id="Gruppe_105" transform="translate(-1498.355 -394.871) rotate(-7)">
	<g transform="matrix(0.99, 0.12, -0.12, 0.99, 1439.06, 574.53)">
		<g id="Ellipse_6-2">
			<circle class="st0" cx="132.7" cy="133.1" r="132.9"/>
		</g>
	</g>
	<g class="st1">
		<path d="M1454.1,759.8l7,0l0,2.4l-3.4,0l0,4.1l3,0v2.5l-3,0l0,7.2l-3.6,0V759.8z"/>
		<path d="M1465.5,759.8l4.1,0l3,16.2l-3.3,0l-0.5-3.4l-2.4,0l-0.6,3.4l-3.4,0L1465.5,759.8z M1468.4,770.5l-0.9-6.3l-0.9,6.3
			L1468.4,770.5z"/>
		<path d="M1475.4,759.8l3.8,0l1.8,9.4l1.9-9.4l3.7,0l0.3,16.2h-2.5l-0.3-10.8l-1.9,10.8l-2.3,0l-2-10.8l-0.2,10.8l-2.6,0
			L1475.4,759.8z"/>
		<path d="M1490.3,759.8l3.6,0V776l-3.6,0V759.8z"/>
		<path d="M1497.3,759.8l3.6,0v13.8l3.7,0v2.4l-7.3,0V759.8z"/>
		<path d="M1507.2,759.8l3.6,0V776l-3.6,0V759.8z"/>
		<path d="M1514.2,759.8l7.3,0l0,2.4l-3.7,0l0,4l2.8,0l0,2.5l-2.8,0v4.8l3.7,0v2.4l-7.3,0V759.8z"/>
		<path d="M1524.1,759.8l2.5,0l3.3,7.8l0-7.8l3,0V776l-2.4,0l-3.3-8.4l0,8.4h-3.1V759.8z"/>
		<path d="M1536.2,771l0-11.2l3.5,0v11.7c0,1,0.1,2.1,1.3,2.1c1.1,0,1.2-1.1,1.2-2.1l0-11.7l3.6,0l0,11.2c0,3.4-1.1,5.3-4.8,5.3
			C1537.2,776.3,1536.2,774.4,1536.2,771z"/>
		<path d="M1549,759.8l2.5,0l3.3,7.8l0-7.8l3,0V776l-2.4,0l-3.3-8.4l0,8.4l-3.1,0L1549,759.8z"/>
		<path d="M1562.7,762.5l-2.4,0l0-2.7h8.5v2.7l-2.4,0l0,13.5l-3.6,0V762.5z"/>
		<path d="M1571.1,759.8l7.3,0l0,2.4l-3.7,0l0,4h2.8l0,2.5h-2.8l0,4.8l3.7,0v2.4l-7.3,0V759.8z"/>
		<path d="M1581.1,759.8l4.5,0c3.3,0,5.4,0.9,5.4,4.3c0,2-0.4,3.3-2,4.1l2.2,7.8l-3.7,0l-1.8-7.3l-1,0l0,7.3l-3.6,0V759.8z
			 M1585.6,766.7c1.5,0,1.9-0.8,1.9-2.3c0-1.4-0.4-2.2-1.8-2.2l-1.2,0l0,4.5L1585.6,766.7z"/>
		<path d="M1594,759.8l2.5,0l3.3,7.8l0-7.8l3,0V776l-2.4,0l-3.3-8.4l0,8.4l-3.1,0V759.8z"/>
		<path d="M1606.3,759.8l7.3,0l0,2.4l-3.7,0l0,4l2.8,0l0,2.5l-2.8,0l0,4.8l3.7,0v2.4l-7.3,0V759.8z"/>
		<path d="M1616.2,759.8l3.6,0l0,6.6l2.5,0l0-6.6l3.6,0V776l-3.6,0l0-7.1l-2.5,0l0,7.1l-3.6,0V759.8z"/>
		<path d="M1629.6,759.8l3.8,0l1.8,9.4l1.9-9.4l3.7,0l0.3,16.2h-2.5l-0.3-10.8l-1.9,10.8l-2.3,0l-2-10.8l-0.2,10.8l-2.6,0
			L1629.6,759.8z"/>
		<path d="M1644.4,759.8l7.3,0l0,2.4l-3.7,0l0,4l2.8,0l0,2.5l-2.8,0l0,4.8l3.7,0l0,2.4l-7.3,0V759.8z"/>
		<path d="M1654.4,759.8l2.5,0l3.3,7.8l0-7.8l3,0l0,16.2l-2.4,0l-3.3-8.4l0,8.4l-3.1,0V759.8z"/>
	</g>
	<g class="st1">
		<path d="M1518.3,797.8l1.3-0.4c0.2,2,0.7,3.6,2.7,3.6c1.4,0,2.3-0.7,2.3-2.3c0-1.4-0.8-2.3-2-3.5l-2.9-2.7c-1-1-1.5-2-1.5-3.3
			c0-2.2,1.5-3.5,3.7-3.5c2.3,0,3.7,1.1,3.9,4.1l-1.3,0.3c-0.2-2-0.7-3.2-2.6-3.2c-1.3,0-2.3,0.7-2.3,2.1c0,0.9,0.3,1.6,1.1,2.4
			l2.9,2.7c1.3,1.2,2.4,2.6,2.4,4.5c0,2.4-1.5,3.7-3.7,3.7C1519.7,802.2,1518.5,800.4,1518.3,797.8z"/>
		<path d="M1529.1,785.8l5.9,0l0,1.2l-4.3,0v6.1l3.5,0v1.1l-3.5,0l0,6.7l4.4,0l0,1.1l-5.9,0V785.8z"/>
		<path d="M1538.1,785.8l1.5,0V802l-1.5,0V785.8z"/>
		<path d="M1545.5,787l-3.1,0l0-1.2l7.6,0l0,1.2h-3l0,15l-1.5,0L1545.5,787z"/>
		<path d="M1557.4,800.9l4.4-6.7c1-1.5,1.9-2.7,1.9-4.6c0-1.7-0.7-2.8-2.2-2.8c-2,0-2.5,1.5-2.5,3.4v0.4l-1.5,0v-0.4
			c0-3,1.1-4.6,3.9-4.6c2.4,0,3.7,1.5,3.7,4.1c0,2-0.9,3.4-1.9,4.9l-4,6.1l5.6,0l0,1.2l-7.3,0L1557.4,800.9z"/>
		<path d="M1568.5,797.4l0-7c0-2.8,1-4.7,3.8-4.7c2.9,0,3.9,1.9,3.9,4.7l0,7c0,2.8-1,4.8-3.9,4.8
			C1569.4,802.2,1568.5,800.2,1568.5,797.4z M1574.7,797.5l0-7.3c0-2-0.5-3.5-2.4-3.5c-1.9,0-2.4,1.5-2.4,3.5l0,7.3
			c0,1.9,0.5,3.5,2.4,3.5C1574.1,801,1574.7,799.5,1574.7,797.5z"/>
		<path d="M1579.8,797.4l0-7c0-2.8,1-4.7,3.8-4.7c2.9,0,3.9,1.9,3.9,4.7l0,7c0,2.8-1,4.8-3.9,4.8
			C1580.7,802.2,1579.8,800.2,1579.8,797.4z M1586,797.5l0-7.3c0-2-0.5-3.5-2.4-3.5c-1.9,0-2.4,1.5-2.4,3.5l0,7.3
			c0,1.9,0.5,3.5,2.4,3.5C1585.5,801,1586,799.5,1586,797.5z"/>
		<path d="M1591,797.7c0-2.8,1.2-3.6,2.3-4.2c-1.3-0.5-2.2-1.7-2.2-3.8c0-2.4,1-4.1,3.7-4.1c2.6,0,3.6,1.7,3.6,4.1
			c0,2.1-0.8,3.2-2.2,3.8c1.1,0.5,2.3,1.3,2.3,4.2c0,2.7-1,4.5-3.8,4.5C1592,802.2,1591,800.4,1591,797.7z M1597,789.7
			c0-1.9-0.7-2.9-2.2-2.9c-1.5,0-2.2,1-2.2,2.9c0,1.7,0.5,3.1,2.2,3.2C1596.4,792.8,1597,791.4,1597,789.7z M1597.1,797.7
			c0-2-0.6-3.3-2.4-3.5c-1.8,0.1-2.4,1.5-2.4,3.5c0,2.3,0.8,3.4,2.4,3.4C1596.4,801,1597.1,800,1597.1,797.7z"/>
	</g>
	<g id="Gruppe_104" transform="translate(1548.603 686.137)">
		<g id="Linie_10">
			<path d="M12.5,15.7c-0.3,0-0.5-0.1-0.8-0.3l-0.6-0.4c-1-0.6-1.3-1.8-0.7-2.7c0.6-1,1.8-1.3,2.7-0.7l0.6,0.4
				c1,0.6,1.3,1.8,0.7,2.7C14.1,15.4,13.3,15.8,12.5,15.7z"/>
		</g>
		<g id="Gruppe_103">
			<g>
				<defs>
					
						<rect id="SVGID_1_" x="-61.7" y="-77.8" transform="matrix(0.9925 -0.1219 0.1219 0.9925 1.4195 0.4887)" width="132.9" height="132.9"/>
				</defs>
				<clipPath id="SVGID_00000128462917857202930810000008105879514559794838_">
					<use xlink:href="#SVGID_1_"  style="overflow:visible;"/>
				</clipPath>
				<g id="Gruppe_102" style="clip-path:url(#SVGID_00000128462917857202930810000008105879514559794838_);">
					<g id="Pfad_82">
						<path d="M27.6,24.4c-0.3,0-0.5-0.1-0.8-0.3l-15.1-8.7c-1-0.6-1.3-1.8-0.7-2.7c0.6-1,1.8-1.3,2.7-0.7l15.1,8.7
							c1,0.6,1.3,1.8,0.7,2.7C29.2,24.1,28.4,24.5,27.6,24.4z"/>
					</g>
					<g id="Linie_11">
						<path d="M4.9,24.5c-0.3,0-0.5-0.1-0.8-0.3l-0.1-0.1c-1-0.6-1.3-1.8-0.7-2.7c0.6-1,1.8-1.3,2.7-0.7l0.1,0.1
							c1,0.6,1.3,1.8,0.7,2.7C6.5,24.3,5.7,24.6,4.9,24.5z"/>
					</g>
					<g id="Pfad_83">
						<path d="M16.1,31c-0.3,0-0.5-0.1-0.8-0.3L4.2,24.3c-1-0.6-1.3-1.8-0.7-2.7s1.8-1.3,2.7-0.7l11.2,6.5c1,0.6,1.3,1.8,0.7,2.7
							C17.7,30.7,16.9,31.1,16.1,31z"/>
					</g>
					<g id="Pfad_84">
						<path d="M11.9,15.3c-0.3,0-0.5-0.1-0.8-0.3l-0.4-0.2c-0.7-0.4-1.1-1.2-1-2c0-0.3,0.1-0.5,0.3-0.8c0.6-1,1.8-1.3,2.7-0.7
							l0.4,0.2c0.7,0.4,1.1,1.2,1,2c0,0.3-0.1,0.5-0.3,0.8C13.5,15,12.7,15.4,11.9,15.3z"/>
					</g>
					<g id="Linie_12">
						<line class="st3" x1="-6.6" y1="29" x2="-6.6" y2="29"/>
					</g>
					<g id="Linie_13">
						<path d="M-18.3,24.4c-0.2,0-0.5-0.1-0.7-0.2l0,0c-1-0.5-1.3-1.7-0.8-2.7c0.5-1,1.7-1.3,2.7-0.8c1,0.5,1.3,1.7,0.8,2.7
							C-16.7,24.1-17.5,24.5-18.3,24.4z"/>
					</g>
					<g id="Pfad_85">
						<path d="M4.8,24.5c-0.3,0-0.5-0.1-0.8-0.3l-0.6-0.4c-1-0.6-1.3-1.8-0.7-2.7c0.6-1,1.8-1.3,2.7-0.7l0.6,0.4
							c1,0.6,1.3,1.8,0.7,2.7C6.4,24.2,5.6,24.6,4.8,24.5z"/>
					</g>
					<g id="Linie_14">
						<path d="M-6.8,31c-0.3,0-0.5-0.1-0.8-0.3l-1.2-0.7c-1-0.6-1.3-1.8-0.7-2.7c0.6-1,1.8-1.3,2.7-0.7l1.2,0.7
							c1,0.6,1.3,1.8,0.7,2.7C-5.3,30.7-6.1,31.1-6.8,31z"/>
					</g>
					<g id="Pfad_86">
						<path d="M38.3,17.3c-0.1,0-0.3,0-0.4-0.1c-0.1,0-0.2-0.1-0.4-0.2c-0.1-0.1-0.2-0.1-0.3-0.2c-0.1-0.1-0.2-0.2-0.3-0.3
							c-0.3-0.4-0.5-0.9-0.4-1.5c0.1-0.5,0.3-1,0.8-1.3c0.8-0.7,2.2-0.5,2.8,0.3c0.3,0.4,0.5,0.9,0.4,1.5c0,0.1,0,0.3-0.1,0.4
							c0,0.1-0.1,0.2-0.2,0.4c-0.1,0.1-0.1,0.2-0.2,0.3c-0.1,0.1-0.2,0.2-0.3,0.3C39.4,17.2,38.8,17.4,38.3,17.3z"/>
					</g>
					<g id="Linie_15">
						<path d="M-18.3,24.4c-0.3,0-0.5-0.1-0.8-0.3l-0.3-0.2c-1-0.5-1.3-1.8-0.7-2.7c0.5-1,1.8-1.3,2.7-0.7l0.3,0.2
							c1,0.5,1.3,1.8,0.7,2.7C-16.8,24.1-17.6,24.5-18.3,24.4z"/>
					</g>
					<g id="Linie_16">
						<path d="M-6.8,31c-0.3,0-0.6-0.1-0.9-0.3l0,0c-0.9-0.6-1.2-1.8-0.6-2.8c0.6-0.9,1.9-1.2,2.8-0.6c0.9,0.6,1.2,1.9,0.6,2.8
							C-5.4,30.8-6.1,31.1-6.8,31z"/>
					</g>
					<g id="Linie_17">
						<path d="M27.6,24.4c-0.3,0-0.5-0.1-0.8-0.3l-15.1-8.7c-1-0.6-1.3-1.8-0.7-2.7c0.6-1,1.8-1.3,2.7-0.7l15.1,8.7
							c1,0.6,1.3,1.8,0.7,2.7C29.2,24.1,28.4,24.5,27.6,24.4z"/>
					</g>
					<g id="Linie_18">
						<path d="M38.3,17.3c-0.4-0.1-0.8-0.2-1.1-0.5l0,0c-0.8-0.8-0.8-2-0.1-2.8c0.8-0.8,2-0.8,2.8-0.1c0.8,0.8,0.8,2,0.1,2.8
							C39.5,17.2,38.9,17.4,38.3,17.3z"/>
					</g>
					<g id="Linie_19">
						<path d="M4.2,24.1c-0.3,0-0.5-0.1-0.7-0.2l-0.1-0.1c-1-0.5-1.3-1.8-0.8-2.7c0.5-1,1.8-1.3,2.7-0.8l0.1,0.1
							c1,0.5,1.3,1.8,0.8,2.7C5.7,23.8,4.9,24.2,4.2,24.1z"/>
					</g>
					<g id="Linie_20">
						<path d="M4.6,37.6c-0.3,0-0.5-0.1-0.8-0.3l-1.7-1c-1-0.6-1.3-1.8-0.7-2.7c0.6-1,1.8-1.3,2.7-0.7l1.7,1c1,0.6,1.3,1.8,0.7,2.7
							C6.2,37.4,5.4,37.7,4.6,37.6z"/>
					</g>
					<g id="Pfad_87">
						<path d="M4.2,24.1c-0.3,0-0.5-0.1-0.7-0.2l-0.1-0.1c-1-0.5-1.3-1.8-0.8-2.7c0.5-1,1.8-1.3,2.7-0.8l0.1,0.1
							c1,0.5,1.3,1.8,0.8,2.7C5.7,23.8,4.9,24.2,4.2,24.1z"/>
					</g>
					<g id="Pfad_88">
						<path d="M4.1,24c-0.3,0-0.5-0.1-0.8-0.3L3,23.6c-0.7-0.4-1.1-1.2-1-2c0-0.3,0.1-0.5,0.3-0.8c0.6-1,1.8-1.3,2.7-0.7l0.3,0.1
							c0.7,0.4,1.1,1.2,1,2c0,0.3-0.1,0.5-0.3,0.8C5.6,23.8,4.8,24.1,4.1,24z"/>
					</g>
					<g id="Pfad_89">
						<path d="M12.5,15.7c-0.3,0-0.5-0.1-0.8-0.3l-0.6-0.4c-1-0.6-1.3-1.8-0.7-2.7c0.6-1,1.8-1.3,2.7-0.7l0.6,0.4
							c1,0.6,1.3,1.8,0.7,2.7C14.1,15.4,13.3,15.8,12.5,15.7z"/>
					</g>
					<g id="Linie_21">
						<path d="M4.8,24.5c-0.3,0-0.5-0.1-0.8-0.3l-0.6-0.4c-1-0.6-1.3-1.8-0.7-2.7s1.8-1.3,2.7-0.7L6,20.8c1,0.6,1.3,1.8,0.7,2.7
							C6.4,24.2,5.6,24.6,4.8,24.5z"/>
					</g>
					<g id="Linie_22">
						<path d="M16.1,31c-0.3,0-0.5-0.1-0.8-0.3L4.2,24.3c-1-0.6-1.3-1.8-0.7-2.7c0.6-1,1.8-1.3,2.7-0.7l11.2,6.5
							c1,0.6,1.3,1.8,0.7,2.7C17.7,30.7,16.9,31.1,16.1,31z"/>
					</g>
					<g id="Pfad_90">
						<path d="M4.9,24.5c-0.3,0-0.5-0.1-0.8-0.3L4,24.2c-0.9-0.6-1.3-1.8-0.7-2.7c0.6-0.9,1.8-1.3,2.7-0.7l0.1,0.1
							c0.9,0.6,1.3,1.8,0.7,2.7C6.4,24.3,5.7,24.6,4.9,24.5z"/>
					</g>
					<g id="Pfad_91">
						<path d="M13.4,42.1c-1-0.1-1.9-0.4-2.9-1l-6.6-3.8c-1-0.6-1.3-1.8-0.7-2.7c0.6-1,1.8-1.3,2.7-0.7l6.6,3.8
							c1.7,1,3.9,0.4,4.9-1.3l0.1-0.1c0,0,0,0,0,0c0.5-0.9,0.6-1.9,0.4-2.8c-0.3-1-0.9-1.8-1.7-2.3c-1-0.6-1.3-1.8-0.7-2.7
							c0.6-1,1.8-1.3,2.7-0.7c1.8,1,3.1,2.7,3.6,4.7c0.5,2,0.2,4.1-0.8,5.9c0,0,0,0,0,0l-0.1,0.1C19.3,41.1,16.3,42.5,13.4,42.1z
							 M19.2,37.3L19.2,37.3L19.2,37.3z"/>
					</g>
					<g id="Pfad_92">
						<path d="M38.3,17.3c-0.3,0-0.6-0.1-0.8-0.3l-21-12.1c-1-0.6-1.3-1.8-0.7-2.7s1.8-1.3,2.7-0.7l21,12.1c1,0.6,1.3,1.8,0.7,2.7
							c-0.4,0.7-1.1,1-1.8,1C38.4,17.3,38.4,17.3,38.3,17.3z"/>
					</g>
					<g id="Pfad_93">
						<path d="M28.6,24.9c-0.3,0-0.5-0.1-0.8-0.3l-1-0.6c-1-0.6-1.3-1.8-0.7-2.7c0.6-1,1.8-1.3,2.7-0.7l1,0.6c1,0.6,1.3,1.8,0.7,2.7
							C30.2,24.7,29.4,25,28.6,24.9z"/>
					</g>
					<g id="Linie_23">
						<path d="M28.6,24.9c-0.3,0-0.5-0.1-0.8-0.3l-1-0.6c-1-0.6-1.3-1.8-0.7-2.7c0.6-1,1.8-1.3,2.7-0.7l1,0.6c1,0.6,1.3,1.8,0.7,2.7
							C30.2,24.7,29.4,25,28.6,24.9z"/>
					</g>
					<g id="Pfad_94">
						<path d="M16.9,31.4c-0.3,0-0.6-0.1-0.8-0.3l-0.7-0.4c-1-0.6-1.3-1.8-0.7-2.7c0.6-1,1.8-1.3,2.7-0.7l0.7,0.4
							c0.1,0,0.1,0.1,0.2,0.1c0.9,0.7,1.1,1.9,0.4,2.8C18.3,31.2,17.6,31.5,16.9,31.4z"/>
					</g>
					<g id="Linie_24">
						<path d="M-29,17.3c-0.1,0-0.3,0-0.4-0.1c-0.1,0-0.2-0.1-0.4-0.2c-0.1-0.1-0.2-0.1-0.3-0.2c-0.1-0.1-0.2-0.2-0.3-0.3
							c-0.3-0.4-0.5-0.9-0.4-1.5c0.1-0.5,0.3-1,0.7-1.3c0.1-0.1,0.2-0.1,0.3-0.2c0.1-0.1,0.2-0.1,0.4-0.1c0.1,0,0.3-0.1,0.4-0.1
							c0.7,0,1.3,0.2,1.7,0.8c0.3,0.4,0.5,1,0.4,1.5c-0.1,0.5-0.3,1-0.8,1.3c-0.1,0.1-0.2,0.2-0.3,0.2c-0.1,0.1-0.2,0.1-0.4,0.1
							c-0.1,0-0.3,0.1-0.4,0.1C-28.8,17.3-28.9,17.3-29,17.3z"/>
					</g>
					<g id="Pfad_95">
						<path d="M44.4,20.3c-1-0.1-1.9-0.4-2.8-1l-4-2.3c-1-0.6-1.3-1.8-0.7-2.7c0.6-1,1.8-1.3,2.7-0.7l4,2.3c1.7,1,3.9,0.4,4.9-1.3
							l0.1-0.1c0.5-0.9,0.7-1.9,0.4-2.9c-0.3-1-0.9-1.8-1.7-2.3l-3.6-2.1c-1-0.6-1.3-1.8-0.7-2.7c0.6-1,1.8-1.3,2.7-0.7l3.6,2.1
							c3.7,2.1,5,6.9,2.8,10.6l-0.1,0.1C50.3,19.3,47.3,20.7,44.4,20.3z"/>
					</g>
					<g id="Pfad_96">
						<path d="M-29,17.3c-0.5-0.1-1-0.3-1.3-0.8c-0.3-0.4-0.5-1-0.4-1.5c0.1-0.5,0.3-1,0.8-1.3c0.8-0.6,2.2-0.5,2.8,0.3
							c0.3,0.4,0.5,1,0.4,1.5c-0.1,0.5-0.3,1-0.7,1.3C-28,17.2-28.5,17.4-29,17.3z"/>
					</g>
					<g id="Linie_25">
						<path d="M16.9,31.4c-0.3,0-0.5-0.1-0.8-0.3l-0.8-0.4c-1-0.6-1.3-1.8-0.7-2.7c0.6-1,1.8-1.3,2.7-0.7l0.8,0.4
							c1,0.6,1.3,1.8,0.7,2.7C18.5,31.2,17.7,31.5,16.9,31.4z"/>
					</g>
					<g id="Pfad_97">
						<path d="M34.7,28c-1-0.1-2-0.4-2.9-1l-4-2.3c-1-0.6-1.3-1.8-0.7-2.7c0.6-1,1.8-1.3,2.7-0.7l4,2.3c1.8,1,4.1,0.4,5.1-1.4
							c1-1.8,0.4-4.1-1.4-5.1c-1-0.6-1.3-1.8-0.7-2.7c0.6-1,1.8-1.3,2.7-0.7c3.7,2.1,5,6.9,2.8,10.6C40.8,26.9,37.7,28.3,34.7,28z"
							/>
					</g>
					<g id="Pfad_98">
						<path d="M25.1,35.7c-1-0.1-1.9-0.4-2.8-1l-6.1-3.5c-1-0.6-1.3-1.8-0.7-2.7c0.6-1,1.8-1.3,2.7-0.7l6.1,3.5
							c1.7,1,3.9,0.4,4.9-1.3l0.1-0.1c0,0,0,0,0-0.1c1-1.8,0.4-4-1.4-5.1c-1-0.6-1.3-1.8-0.7-2.7c0.6-1,1.8-1.3,2.7-0.7
							c3.7,2.1,4.9,6.9,2.8,10.5c0,0,0,0,0,0l-0.1,0.1C31,34.6,28,36,25.1,35.7z M30.9,30.8L30.9,30.8L30.9,30.8z"/>
					</g>
					<g id="Pfad_99">
						<path d="M-35,7.5c-0.8-0.1-1.4-0.6-1.7-1.4l0-0.1L-46,0.7c-1-0.6-1.3-1.8-0.7-2.7c0.6-1,1.8-1.3,2.7-0.7l9.9,5.7
							c0.5,0.3,0.8,0.7,0.9,1.2c0,0.1,0.1,0.3,0.1,0.4c0,0.1,0.1,0.3,0.1,0.4c0.3,1.1-0.3,2.2-1.3,2.5C-34.4,7.5-34.7,7.5-35,7.5z"
							/>
					</g>
					<g id="Linie_26">
						<path d="M-45.2,0.9c-0.1,0-0.3,0-0.4-0.1c-0.1,0-0.2-0.1-0.4-0.2c-0.1-0.1-0.2-0.1-0.3-0.2c-0.1-0.1-0.2-0.2-0.3-0.3
							c-0.1-0.1-0.2-0.2-0.2-0.3c-0.1-0.1-0.1-0.2-0.1-0.4c0-0.1-0.1-0.3-0.1-0.4c0-0.1,0-0.3,0-0.4c0.1-0.5,0.3-1,0.8-1.3
							c0.1-0.1,0.2-0.2,0.3-0.2c0.1-0.1,0.2-0.1,0.4-0.1c0.1,0,0.3,0,0.4-0.1c0.3,0,0.5,0,0.8,0.1c0.1,0,0.3,0.1,0.4,0.2
							c0.1,0.1,0.2,0.1,0.3,0.2c0.1,0.1,0.2,0.2,0.3,0.3c0.3,0.4,0.5,0.9,0.4,1.5c-0.1,0.5-0.3,1-0.8,1.3C-44.2,0.8-44.7,1-45.2,0.9
							z"/>
					</g>
					<g id="Pfad_100">
						<path d="M-15.7-27.1c-0.3,0-0.5-0.1-0.8-0.3l-9.9-5.7c-1-0.6-1.3-1.8-0.7-2.7c0.6-1,1.8-1.3,2.7-0.7l9.1,5.3l2.5-1
							c6-2.3,12.5-2.3,18.4,0.1c1,0.4,1.5,1.6,1.1,2.6c-0.4,1-1.6,1.5-2.6,1.1c-5-2-10.5-2.1-15.5-0.1l-3.4,1.3
							C-15.1-27.1-15.4-27.1-15.7-27.1z"/>
					</g>
					<g id="Pfad_101">
						<path d="M-47.5,4.9c-0.2,0-0.5-0.1-0.7-0.2l-12-6.2c-1-0.5-1.4-1.7-0.9-2.7c0.5-1,1.7-1.4,2.7-0.9L-48,0.3l1.3-2.3
							c0.6-1,1.8-1.3,2.7-0.7c1,0.6,1.3,1.8,0.7,2.7l-2.3,4C-46,4.6-46.7,5-47.5,4.9z"/>
					</g>
					<g id="Pfad_102">
						<path d="M-45.2,0.9c-0.3,0-0.5-0.1-0.8-0.3c-1-0.6-1.3-1.8-0.7-2.7l20.8-36l-19.2-11.1c-1-0.6-1.3-1.8-0.7-2.7
							c0.6-1,1.8-1.3,2.7-0.7l20.9,12.1c0.5,0.3,0.8,0.7,0.9,1.2c0.1,0.5,0.1,1.1-0.2,1.5L-43.2-0.1C-43.7,0.7-44.4,1-45.2,0.9z"/>
					</g>
					<g id="Pfad_103">
						<path d="M-26.8,27.9c-2.3-0.3-4.5-1.6-5.7-3.8c-1-1.8-1.3-3.9-0.8-5.9c0.5-2,1.8-3.7,3.6-4.7c1-0.6,2.2-0.2,2.7,0.7
							c0.6,1,0.2,2.2-0.7,2.7c-0.9,0.5-1.5,1.3-1.7,2.3c-0.3,1-0.1,2,0.4,2.8c1,1.8,3.3,2.4,5.1,1.4l3.1-1.8c1-0.6,2.2-0.2,2.7,0.7
							c0.6,1,0.2,2.2-0.7,2.7L-22,27C-23.5,27.8-25.2,28.1-26.8,27.9z"/>
					</g>
					<g id="Pfad_104">
						<path d="M-2,41.4c-0.6-0.1-1.2-0.4-1.5-1c-0.5-1-0.2-2.2,0.7-2.7l0.1-0.1c1-0.5,2.2-0.2,2.7,0.7c0.5,1,0.2,2.2-0.7,2.7
							l-0.1,0.1C-1.1,41.4-1.6,41.5-2,41.4z"/>
					</g>
					<g id="Linie_27">
						<path d="M-18.3,24.4c-0.6-0.1-1.2-0.4-1.5-1c-0.6-1-0.2-2.2,0.7-2.7l0.2-0.1c1-0.6,2.2-0.2,2.7,0.7c0.6,1,0.2,2.2-0.7,2.7
							l-0.2,0.1C-17.5,24.3-17.9,24.4-18.3,24.4z"/>
					</g>
					<g id="Pfad_105">
						<path d="M-29,17.3c-0.6-0.1-1.1-0.4-1.4-0.9c-0.6-0.9-0.3-2.2,0.6-2.8l0,0c0.9-0.6,2.2-0.3,2.8,0.6c0.6,0.9,0.3,2.2-0.6,2.8
							C-28.1,17.3-28.6,17.4-29,17.3z"/>
					</g>
					<g id="Pfad_106">
						<path d="M-29,17.3c-0.5-0.1-1-0.3-1.3-0.7c-0.1-0.1-0.2-0.2-0.2-0.3c-0.1-0.1-0.1-0.2-0.1-0.4c0-0.1-0.1-0.3-0.1-0.4
							c0-0.1,0-0.3,0-0.4c0-0.1,0.1-0.3,0.1-0.4c0-0.1,0.1-0.2,0.2-0.4c0.1-0.1,0.1-0.2,0.2-0.3c0.1-0.1,0.2-0.2,0.3-0.3
							c0.1-0.1,0.2-0.2,0.3-0.2c0.1-0.1,0.2-0.1,0.4-0.1c0.1,0,0.2-0.1,0.4-0.1c0.3,0,0.5,0,0.8,0.1c0.1,0,0.2,0.1,0.4,0.2
							c0.1,0.1,0.2,0.1,0.3,0.2c0.1,0.1,0.2,0.2,0.3,0.3c0.3,0.4,0.5,1,0.4,1.5c0,0.1,0,0.3-0.1,0.4c0,0.1-0.1,0.3-0.2,0.4
							c-0.1,0.1-0.1,0.2-0.2,0.3c-0.1,0.1-0.2,0.2-0.3,0.3C-28,17.2-28.5,17.4-29,17.3z"/>
					</g>
					<g id="Linie_28">
						<path d="M16.1,31c-0.7-0.1-1.4-0.6-1.6-1.3c-0.4-1,0.2-2.2,1.2-2.6l0,0c1-0.4,2.2,0.2,2.6,1.2c0.4,1-0.2,2.2-1.2,2.6
							C16.7,31,16.4,31,16.1,31z"/>
					</g>
					<g id="Linie_29">
						<path d="M-1.9,41.4c-0.6-0.1-1.2-0.4-1.5-1c-0.6-1-0.2-2.2,0.7-2.7l2.2-1.3c1-0.6,2.2-0.2,2.7,0.7c0.6,1,0.2,2.2-0.7,2.7
							l-2.2,1.3C-1,41.4-1.5,41.4-1.9,41.4z"/>
					</g>
					<g id="Linie_30">
						<line class="st3" x1="27.9" y1="22.4" x2="27.9" y2="22.4"/>
					</g>
					<g id="Pfad_107">
						<path d="M-18.3,24.4c-0.6-0.1-1.2-0.4-1.5-1c-0.6-1-0.2-2.2,0.7-2.7c0,0,0.1,0,0.1-0.1c0,0,0,0,0.1,0l0.8-0.5l0,0
							c0.8-0.4,1.3-0.4,2,0c0.6,0.4,1,1,1,1.7c0,0.8-0.4,1.3-1,1.7l0,0l-1,0.6C-17.5,24.3-17.9,24.4-18.3,24.4z"/>
					</g>
					<g id="Linie_31">
						<path d="M-20.1,25.4c-0.6-0.1-1.2-0.4-1.5-1c-0.6-1-0.2-2.2,0.7-2.7l0.8-0.5c1-0.6,2.2-0.2,2.7,0.7c0.6,1,0.2,2.2-0.7,2.7
							l-0.8,0.5C-19.3,25.4-19.7,25.5-20.1,25.4z"/>
					</g>
					<g id="Pfad_108">
						<path d="M-29,17.3c-0.6-0.1-1.2-0.4-1.5-1c-0.6-1-0.2-2.2,0.7-2.7l0.2-0.1c1-0.6,2.2-0.2,2.7,0.7c0.6,1,0.2,2.2-0.7,2.7
							l-0.2,0.1C-28.2,17.3-28.6,17.3-29,17.3z"/>
					</g>
					<g id="Linie_32">
						<path d="M-29,17.3c-0.6-0.1-1.2-0.4-1.5-1c-0.6-1-0.2-2.2,0.7-2.7l0.2-0.1c1-0.6,2.2-0.2,2.7,0.7c0.6,1,0.2,2.2-0.7,2.7
							l-0.2,0.1C-28.2,17.3-28.6,17.3-29,17.3z"/>
					</g>
					<g id="Linie_33">
						<path d="M0.3,40.1c-0.6-0.1-1.2-0.4-1.5-1c-0.6-1-0.2-2.2,0.7-2.7l4.4-2.5c1-0.6,2.2-0.2,2.7,0.7c0.6,1,0.2,2.2-0.7,2.7
							l-4.4,2.5C1.1,40.1,0.7,40.2,0.3,40.1z"/>
					</g>
					<g id="Pfad_109">
						<path d="M-28.9,17.2c-0.6-0.1-1.2-0.4-1.5-1c-0.4-0.7-0.3-1.5,0.1-2.1c0.2-0.2,0.4-0.5,0.7-0.6l1-0.6c1-0.6,2.2-0.2,2.7,0.7
							c0.6,1,0.2,2.2-0.7,2.7l-1,0.6C-28,17.2-28.4,17.3-28.9,17.2z"/>
					</g>
					<g id="Pfad_110">
						<path d="M-36.5,20.3c-2.3-0.3-4.4-1.6-5.6-3.7l-0.1-0.1c-2.1-3.7-0.9-8.4,2.8-10.6l3.6-2.1c1-0.6,2.2-0.2,2.7,0.7
							c0.6,1,0.2,2.2-0.7,2.7l-3.6,2.1c-1.8,1-2.4,3.3-1.4,5.1l0.1,0.1c1,1.7,3.2,2.3,4.9,1.3l4-2.3c1-0.6,2.2-0.2,2.7,0.7
							c0.6,1,0.2,2.2-0.7,2.7l-4,2.3C-33.2,20.2-34.9,20.5-36.5,20.3z"/>
					</g>
					<g id="Linie_34">
						<path d="M-19.3,25c-0.6-0.1-1.2-0.4-1.5-1c-0.6-1-0.2-2.2,0.7-2.7l1-0.6c1-0.6,2.2-0.2,2.7,0.7c0.6,1,0.2,2.2-0.7,2.7l-1,0.6
							C-18.5,24.9-18.9,25-19.3,25z"/>
					</g>
					<g id="Linie_35">
						<path d="M-29,17.3c-0.6-0.1-1.2-0.5-1.5-1.1c-0.5-1-0.1-2.2,0.9-2.7l0,0c1-0.5,2.2-0.1,2.7,0.9c0.5,1,0.1,2.2-0.9,2.7
							C-28.2,17.3-28.6,17.3-29,17.3z"/>
					</g>
					<g id="Pfad_111">
						<path d="M-19.3,24.9c-0.5-0.1-1.1-0.4-1.4-0.8c-0.6-0.9-0.4-2.1,0.5-2.8l0,0c0,0,0.1-0.1,0.1-0.1l1-0.6c1-0.6,2.2-0.2,2.7,0.7
							c0.6,1,0.2,2.2-0.7,2.7l-1,0.6C-18.4,24.9-18.9,25-19.3,24.9z"/>
					</g>
					<g id="Pfad_112">
						<path d="M4.6-28.3c-0.7-0.1-1.3-0.5-1.6-1.2c-0.4-1,0.1-2.2,1.1-2.6c5.9-2.4,12.5-2.5,18.4-0.1l2.5,1l9.1-5.3
							c1-0.6,2.2-0.2,2.7,0.7c0.6,1,0.2,2.2-0.7,2.7l-9.9,5.7c-0.5,0.3-1.2,0.3-1.7,0.1l-3.4-1.3c-5-1.9-10.5-1.9-15.5,0.1
							C5.3-28.3,5-28.3,4.6-28.3z"/>
					</g>
					<g id="Pfad_113">
						<path d="M-17.2,35.7c-2.3-0.3-4.4-1.6-5.6-3.7l-0.1-0.1c-2.1-3.7-0.9-8.4,2.8-10.6c1-0.6,2.2-0.2,2.7,0.7
							c0.6,1,0.2,2.2-0.7,2.7c-0.9,0.5-1.5,1.3-1.7,2.3c-0.3,1-0.1,2,0.4,2.8l0.1,0.2c1,1.7,3.2,2.3,4.9,1.3l3.3-1.9
							c1-0.6,2.2-0.2,2.7,0.7c0.6,1,0.2,2.2-0.7,2.7l-3.3,1.9C-13.9,35.6-15.6,35.8-17.2,35.7z"/>
					</g>
					<g id="Linie_36">
						<line class="st3" x1="38.6" y1="15.3" x2="38.6" y2="15.3"/>
					</g>
					<g id="Pfad_114">
						<path d="M-5.4,42.1c-2.3-0.3-4.4-1.6-5.6-3.7l-0.1-0.1c-2.1-3.7-0.9-8.4,2.8-10.6c0.9-0.6,2.2-0.2,2.7,0.7
							c0.6,0.9,0.3,2.2-0.7,2.7c-1.8,1.1-2.4,3.4-1.4,5.1l0.1,0.1c1,1.7,3.2,2.3,4.9,1.3c1-0.6,2.2-0.2,2.7,0.7
							c0.6,1,0.2,2.2-0.7,2.7C-2.2,42-3.9,42.3-5.4,42.1z"/>
					</g>
					<g id="Linie_37">
						<path d="M-7.6,31.4c-0.6-0.1-1.2-0.4-1.5-1c-0.6-1-0.2-2.2,0.7-2.7l0.8-0.4c1-0.6,2.2-0.2,2.7,0.7c0.6,1,0.2,2.2-0.7,2.7
							l-0.8,0.4C-6.7,31.4-7.2,31.5-7.6,31.4z"/>
					</g>
					<g id="Pfad_115">
						<path d="M-6.8,31c-0.6-0.1-1.2-0.4-1.5-1c-0.5-1-0.2-2.2,0.7-2.7l2-1.2c0,0,0.1,0,0.1-0.1c0.2-0.1,0.4-0.2,0.4-0.2l0,0
							c1.2-0.5,2.2-0.3,2.7,0.7c0.7,1.3,0.1,2.1-0.8,2.7l0,0c0,0-0.2,0.1-0.7,0.4c-0.1,0.1-0.3,0.1-0.4,0.2l-1.5,0.9
							C-6,31-6.4,31-6.8,31z"/>
					</g>
					<g id="Pfad_116">
						<path d="M-7.6,31.4c-1-0.1-1.8-1-1.8-2.1c0-0.8,0.5-1.4,1.1-1.7l0.7-0.4c1-0.6,2.2-0.2,2.7,0.7c0.6,1,0.2,2.2-0.7,2.7
							l-0.7,0.4c-0.3,0.2-0.7,0.3-1.1,0.3C-7.5,31.4-7.5,31.4-7.6,31.4z"/>
					</g>
					<g id="Pfad_117">
						<path d="M15.7-9c-0.3,0-0.5-0.1-0.8-0.3l-3.9-2.2c-1-0.6-1.3-1.8-0.7-2.7c0.6-1,1.8-1.3,2.7-0.7l3.9,2.2
							c1,0.6,1.3,1.8,0.7,2.7C17.3-9.2,16.5-8.9,15.7-9z"/>
					</g>
					<g id="Pfad_118">
						<path d="M15.7-9c-0.3,0-0.5-0.1-0.8-0.3l-3.9-2.2c-1-0.6-1.3-1.8-0.7-2.7c0.6-1,1.8-1.3,2.7-0.7l3.9,2.2
							c1,0.6,1.3,1.8,0.7,2.7C17.3-9.2,16.5-8.9,15.7-9z"/>
					</g>
					<g id="Pfad_119">
						<path d="M44.3,7.5c-0.3,0-0.5-0.1-0.8-0.3L15-9.2c-1-0.6-1.3-1.8-0.7-2.7c0.6-1,1.8-1.3,2.7-0.7L45.5,3.8
							c1,0.6,1.3,1.8,0.7,2.7C45.8,7.2,45.1,7.6,44.3,7.5z"/>
					</g>
					<g id="Linie_38">
						<path d="M11.8-11.2c-0.5-0.1-1-0.3-1.3-0.8c-0.1-0.1-0.2-0.2-0.2-0.3c-0.1-0.1-0.1-0.2-0.1-0.4c0-0.1-0.1-0.3-0.1-0.4
							c0-0.1,0-0.3,0-0.4c0.1-0.5,0.3-1,0.8-1.3c0.8-0.7,2.2-0.5,2.8,0.3c0.3,0.4,0.5,0.9,0.4,1.5s-0.3,1-0.7,1.3
							C12.9-11.3,12.4-11.1,11.8-11.2z"/>
					</g>
					<g id="Pfad_120">
						<path d="M11.8-11.2c-1.1-0.1-1.8-1.1-1.7-2.2c0.1-1.1,1.1-1.9,2.2-1.8c5.3,0.5,10.6,0.8,16,0.8c1.1,0,2,0.9,2,2
							c0,1.1-0.9,2-2,2C22.8-10.4,17.3-10.7,11.8-11.2C11.9-11.2,11.9-11.2,11.8-11.2z"/>
					</g>
					<g id="Pfad_121">
						<path d="M-15.2,0.9c-0.2,0-0.4-0.1-0.6-0.1c-1.3-0.3-2.3-1.1-3-2.2c-0.7-1.1-0.9-2.4-0.5-3.7l2.8-11.1c0.8-3.3,3-6.2,6-7.9
							L1-30.7c1-0.6,2.1-1.1,3.1-1.5c1-0.4,2.2,0.1,2.6,1.1c0.4,1-0.1,2.2-1.1,2.6c-0.9,0.4-1.8,0.8-2.6,1.3l-11.5,6.6
							c-2,1.2-3.5,3.1-4.1,5.4l-2.8,11.1c-0.1,0.3,0,0.5,0.1,0.6c0.1,0.1,0.2,0.3,0.5,0.4c0.1,0,0.1,0,0.2,0c2.6,0,5-1.5,6-4l2.2-5
							c0.2-0.4,0.4-0.7,0.7-0.9l5.3-3.5c0.4-0.3,1-0.4,1.5-0.3c0,0,4.3,0.9,11.1,1.5c1.1,0.1,1.9,1.1,1.8,2.2
							c-0.1,1.1-1.1,1.9-2.2,1.8c-5.4-0.5-9.1-1.1-10.7-1.4l-4.2,2.8l-2,4.5c-1.7,3.9-5.5,6.3-9.7,6.3C-14.8,0.9-15,0.9-15.2,0.9z"
							/>
					</g>
					<g id="Pfad_122">
						<path d="M44.3,7.5c-0.1,0-0.2,0-0.3-0.1c-1.1-0.3-1.6-1.4-1.3-2.5c0-0.1,0.1-0.3,0.1-0.4c0-0.1,0.1-0.3,0.1-0.4
							c0.1-0.5,0.5-0.9,0.9-1.2l9.9-5.7c1-0.6,2.2-0.2,2.7,0.7c0.6,1,0.2,2.2-0.7,2.7L46.5,6l0,0.1C46.1,7,45.2,7.6,44.3,7.5z"/>
					</g>
					<g id="Linie_39">
						<path d="M54.5,0.9c-0.5-0.1-1-0.3-1.3-0.8c-0.3-0.4-0.5-1-0.4-1.5c0.1-0.5,0.3-1,0.7-1.3c0.8-0.6,2.2-0.5,2.8,0.3
							c0.3,0.4,0.5,1,0.4,1.5c-0.1,0.5-0.3,1-0.8,1.3C55.6,0.8,55,1,54.5,0.9z"/>
					</g>
					<g id="Linie_40">
						<path d="M-10.4,33.1c-0.6-0.1-1.2-0.4-1.5-1c-0.6-1-0.2-2.2,0.7-2.7l2.8-1.6c1-0.6,2.2-0.2,2.7,0.7c0.6,1,0.2,2.2-0.7,2.7
							l-2.8,1.6C-9.6,33-10,33.1-10.4,33.1z"/>
					</g>
					<g id="Pfad_123">
						<path d="M-7.6,31.4c-0.5-0.1-1-0.3-1.3-0.8c-0.7-0.9-0.5-2.1,0.3-2.8c0.1-0.1,0.2-0.1,0.2-0.2c1-0.5,2.2-0.2,2.7,0.7
							c0.5,0.9,0.2,2.1-0.6,2.7C-6.7,31.4-7.1,31.5-7.6,31.4z"/>
					</g>
					<g id="Pfad_124">
						<path d="M56.8,4.9c-0.6-0.1-1.2-0.4-1.5-1l-2.3-4c-0.6-1-0.2-2.2,0.7-2.7c1-0.6,2.2-0.2,2.7,0.7l1.3,2.3L68.1-5
							c1-0.5,2.2-0.1,2.7,0.9C71.3-3.2,71-2,70-1.5L58,4.7C57.6,4.9,57.2,4.9,56.8,4.9z"/>
					</g>
					<g id="Pfad_125">
						<path d="M54.5,0.9c-0.6-0.1-1.2-0.4-1.5-1L31.2-37.8c-0.3-0.5-0.3-1-0.2-1.5c0.1-0.5,0.5-0.9,0.9-1.2l20.9-12.1
							c1-0.6,2.2-0.2,2.7,0.7c0.6,1,0.2,2.2-0.7,2.7L35.7-38.1l20.8,36c0.6,1,0.2,2.2-0.7,2.7C55.4,0.9,54.9,1,54.5,0.9z"/>
					</g>
					<g id="Linie_41">
						<path d="M-29,17.3c-0.5-0.1-1-0.3-1.3-0.8c-0.7-0.9-0.5-2.1,0.3-2.8c0.9-0.7,2.1-0.5,2.8,0.3c0.7,0.9,0.5,2.1-0.3,2.8l0,0
							C-28,17.2-28.5,17.4-29,17.3z"/>
					</g>
					<g id="Pfad_126">
						<path d="M-28.9,17.2c-0.5-0.1-1-0.3-1.3-0.8c-0.3-0.4-0.5-0.9-0.4-1.5c0.1-0.5,0.3-1,0.8-1.3C-29,13-27.7,13.2-27,14
							c0.3,0.4,0.5,1,0.4,1.5c-0.1,0.5-0.3,1-0.7,1.3C-27.8,17.1-28.3,17.3-28.9,17.2z"/>
					</g>
					<g id="Pfad_127">
						<path d="M-29,17.3c-0.6-0.1-1.2-0.4-1.5-1c-0.6-1-0.2-2.2,0.7-2.7l0.1-0.1c0.9-0.5,2-0.3,2.7,0.6c0.6,0.9,0.4,2.1-0.5,2.8
							c0,0-0.1,0.1-0.2,0.1l-0.2,0.1C-28.2,17.3-28.6,17.4-29,17.3z"/>
					</g>
					<g id="Pfad_128">
						<path d="M-28.9,17.2c-0.6-0.1-1.2-0.4-1.5-1c-0.6-1-0.2-2.2,0.7-2.7c0.9-0.5,1.5-1.3,1.7-2.3c0.3-1,0.1-2-0.4-2.8
							c-0.5-0.9-1.3-1.5-2.3-1.7c-1-0.3-2-0.1-2.8,0.4c-1,0.6-2.2,0.2-2.7-0.7c-0.6-1-0.2-2.2,0.7-2.7c1.8-1,3.9-1.3,5.9-0.8
							c2,0.5,3.7,1.8,4.7,3.6c1,1.8,1.3,3.9,0.8,5.9s-1.8,3.7-3.6,4.7C-28,17.2-28.4,17.3-28.9,17.2z"/>
					</g>
					<g id="Linie_42">
						<path d="M-31.9,18.9c-0.6-0.1-1.2-0.4-1.5-1c-0.6-1-0.2-2.2,0.7-2.7l2.8-1.6c1-0.6,2.2-0.2,2.7,0.7c0.6,1,0.2,2.2-0.7,2.7
							l-2.8,1.6C-31,18.9-31.4,19-31.9,18.9z"/>
					</g>
					<g id="Pfad_129">
						<path d="M-20.1,25.4c-1-0.1-1.8-1-1.8-2c0-1.1,0.9-2,2-2c1.1,0,2,0.9,2,2c0,1.1-0.9,2-2,2l0,0C-20,25.4-20.1,25.4-20.1,25.4z"
							/>
					</g>
					<g id="Linie_43">
						<line class="st3" x1="-25.6" y1="13.5" x2="-25.6" y2="13.5"/>
					</g>
					<g id="Pfad_130">
						<path d="M-18.7,24.2c-0.4,0-0.7-0.2-1.1-0.5c-0.8-0.7-0.9-2-0.2-2.8c1-1.2,1.2-2.9,0.4-4.3c-0.5-0.9-1.3-1.5-2.3-1.7
							c-1-0.3-2-0.1-2.8,0.4c-1,0.6-2.2,0.2-2.7-0.7c-0.6-1-0.2-2.2,0.7-2.7c3.7-2.1,8.4-0.9,10.6,2.8c1.7,2.8,1.3,6.4-0.8,8.9
							C-17.4,24-18,24.3-18.7,24.2z"/>
					</g>
					<g id="Pfad_131">
						<path d="M-20.1,25.4c-0.6-0.1-1.1-0.4-1.5-1c-0.6-0.9-0.2-2.2,0.7-2.7c0.4-0.2,0.7-0.5,1-0.8c0.7-0.8,2-1,2.8-0.3
							c0.8,0.7,1,2,0.3,2.8c-0.6,0.7-1.2,1.2-2,1.7C-19.3,25.4-19.7,25.5-20.1,25.4z"/>
					</g>
					<g id="Pfad_132">
						<path d="M-10.4,33.1c-0.5-0.1-1-0.3-1.4-0.8c-0.6-0.9-0.4-2.1,0.5-2.8c0.9-0.6,2.1-0.4,2.8,0.5c0.6,0.9,0.4,2.1-0.5,2.8l0,0
							C-9.4,33-9.9,33.1-10.4,33.1z"/>
					</g>
					<g id="Pfad_133">
						<path d="M-10.4,33.1c-0.6-0.1-1.2-0.4-1.5-1c-0.6-1-0.2-2.2,0.7-2.7c0.7-0.4,1.2-1,1.6-1.8c0.4-1,1.6-1.5,2.6-1.1
							c1,0.4,1.5,1.6,1.1,2.6c-0.6,1.6-1.8,2.9-3.2,3.7C-9.6,33-10,33.1-10.4,33.1z"/>
					</g>
					<g id="Pfad_134">
						<path d="M-8,30.3c-0.2,0-0.4-0.1-0.5-0.1c-1-0.4-1.5-1.6-1.1-2.6c0.5-1.1,0.4-2.3-0.2-3.3c-1-1.8-3.3-2.4-5.1-1.3
							c-1,0.6-2.2,0.2-2.7-0.7c-0.6-1-0.2-2.2,0.7-2.7c1.8-1,3.9-1.3,5.9-0.8c2,0.5,3.7,1.8,4.7,3.6c1.2,2.1,1.4,4.7,0.4,6.9
							C-6.3,30-7.2,30.4-8,30.3z"/>
					</g>
					<g id="Linie_44">
						<line class="st3" x1="-15.9" y1="21.1" x2="-15.9" y2="21.1"/>
					</g>
					<g id="Linie_45">
						<path d="M-7.6,31.4c-0.6-0.1-1.2-0.4-1.5-1c-0.6-1-0.2-2.2,0.7-2.7l0.8-0.4c1-0.5,2.2-0.2,2.7,0.7c0.6,1,0.2,2.2-0.7,2.7
							l-0.8,0.4C-6.8,31.4-7.2,31.5-7.6,31.4z"/>
					</g>
					<g id="Linie_46">
						<path d="M-10.4,33.1c-0.6-0.1-1.2-0.4-1.5-1c-0.6-1-0.2-2.2,0.7-2.7l2.8-1.6c1-0.6,2.2-0.2,2.7,0.7c0.6,1,0.2,2.2-0.7,2.7
							l-2.8,1.6C-9.6,33-10,33.1-10.4,33.1z"/>
					</g>
					<g id="Linie_47">
						<path d="M-2,41.4c-0.6-0.1-1.2-0.4-1.5-1c-0.5-1-0.2-2.2,0.7-2.7l0.1-0.1c1-0.5,2.2-0.2,2.7,0.7c0.5,1,0.2,2.2-0.7,2.7
							l-0.1,0.1C-1.1,41.4-1.6,41.5-2,41.4z"/>
					</g>
					<g id="Pfad_135">
						<path d="M-1.9,41.4c-0.6-0.1-1.2-0.4-1.5-1c-0.6-1-0.2-2.2,0.7-2.7l2.2-1.3c1-0.6,2.2-0.2,2.7,0.7c0.6,1,0.2,2.2-0.7,2.7
							l-2.2,1.3C-1,41.4-1.5,41.4-1.9,41.4z"/>
					</g>
					<g id="Pfad_136">
						<path d="M3,36.7c-0.1,0-0.2,0-0.3-0.1c-1.1-0.3-1.7-1.4-1.4-2.4c0.3-1,0.1-2-0.4-2.8c-0.5-0.9-1.3-1.5-2.3-1.7
							c-1-0.3-2-0.1-2.8,0.4l-1.4,0.8c-1,0.5-2.2,0.2-2.7-0.7c-0.5-1-0.2-2.2,0.7-2.7l1.4-0.8c1.8-1,3.9-1.3,5.9-0.8
							c2,0.5,3.7,1.8,4.7,3.6s1.3,3.9,0.8,5.9C4.9,36.2,3.9,36.8,3,36.7z"/>
					</g>
					<g id="Pfad_137">
						<path d="M0.3,40.1c-0.6-0.1-1.2-0.4-1.5-1c-0.6-1-0.2-2.2,0.7-2.7c0.9-0.5,1.5-1.3,1.7-2.3c0.3-1.1,1.4-1.7,2.4-1.4
							c1.1,0.3,1.7,1.4,1.4,2.4c-0.5,2-1.8,3.7-3.6,4.7C1.1,40.1,0.7,40.2,0.3,40.1z"/>
					</g>
					<g id="Linie_48">
						<path d="M-2.7,41.9c-0.6-0.1-1.2-0.4-1.5-1c-0.6-1-0.2-2.2,0.7-2.7l0.7-0.4c1-0.6,2.2-0.2,2.7,0.7c0.6,1,0.2,2.2-0.7,2.7
							l-0.7,0.4C-1.8,41.8-2.3,41.9-2.7,41.9z"/>
					</g>
					<g id="Linie_49">
						<path d="M-18.2,24.3c-0.6-0.1-1.2-0.4-1.5-1c-0.6-1-0.2-2.2,0.7-2.7l2-1.1c1-0.6,2.2-0.2,2.7,0.7c0.6,1,0.2,2.2-0.7,2.7
							l-2,1.1C-17.3,24.3-17.7,24.3-18.2,24.3z"/>
					</g>
					<g id="Linie_50">
						<path d="M-16.2,23.1c-0.6-0.1-1.2-0.4-1.5-1c-0.6-1-0.2-2.2,0.7-2.7l1-0.6c1-0.6,2.2-0.2,2.7,0.7c0.6,1,0.2,2.2-0.7,2.7
							l-1,0.6C-15.3,23.1-15.8,23.2-16.2,23.1z"/>
					</g>
					<g id="Linie_51">
						<path d="M-27.9,16.6c-0.6-0.1-1.2-0.4-1.5-1c-0.6-1-0.2-2.2,0.7-2.7l2-1.1c1-0.6,2.2-0.2,2.7,0.7s0.2,2.2-0.7,2.7l-2,1.1
							C-27,16.6-27.5,16.7-27.9,16.6z"/>
					</g>
					<g id="Linie_52">
						<path d="M-25.9,15.5c-0.6-0.1-1.2-0.4-1.5-1c-0.6-1-0.2-2.2,0.7-2.7l1-0.6c1-0.6,2.2-0.2,2.7,0.7c0.6,1,0.2,2.2-0.7,2.7
							l-1,0.6C-25,15.5-25.5,15.5-25.9,15.5z"/>
					</g>
				</g>
			</g>
		</g>
	</g>
</g>
</svg>
